<svg id="gloo-product-logo" viewBox="250 150 2210 480" fill="none" xmlns="http://www.w3.org/2000/svg" alt="Gloo Mesh Gateway" style="max-height:100px">
    <style>#gloo-product-logo path{fill:#151927}@media(prefers-color-scheme:dark){#gloo-product-logo path{fill:white}}</style>
    <path fill-rule="evenodd" clip-rule="evenodd" d="M292.084 447.396C319.258 474.569 356.1 489.855 394.529 489.899C432.97 489.84 469.817 474.531 496.981 447.332C524.146 420.133 539.409 383.267 539.42 344.826V315.504H394.459V374.148H475.638C469.593 390.83 458.559 405.248 444.036 415.442C429.512 425.637 412.203 431.114 394.459 431.13C371.578 431.104 349.641 422.003 333.462 405.824C317.282 389.644 308.181 367.707 308.155 344.826C308.142 333.456 310.393 322.197 314.777 311.707C319.162 301.216 325.592 291.704 333.693 283.725C341.725 275.677 351.279 269.309 361.799 264.994C372.318 260.679 383.592 258.503 394.961 258.592C416.191 258.708 436.629 266.664 452.349 280.932L491.696 237.452C465.289 213.531 430.983 200.197 395.352 200.004C376.246 199.857 357.301 203.519 339.625 210.776C321.949 218.033 305.897 228.739 292.405 242.27C278.809 255.686 268.02 271.675 260.667 289.304C253.315 306.934 249.546 325.851 249.581 344.952C249.626 383.381 264.911 420.223 292.084 447.396ZM705.633 446.974C732.702 474.043 769.402 489.27 807.683 489.314C845.978 489.292 882.7 474.075 909.786 447.004C936.873 419.933 952.111 383.22 952.155 344.925C952.111 306.63 936.873 269.917 909.786 242.846C882.7 215.775 845.978 200.558 807.683 200.536C769.402 200.58 732.702 215.807 705.633 242.875C678.565 269.944 663.338 306.644 663.294 344.925C663.338 383.206 678.565 419.906 705.633 446.974ZM747.075 284.313C763.15 268.235 784.947 259.191 807.683 259.165V259.179C830.429 259.187 852.243 268.22 868.335 284.297C884.427 300.373 893.482 322.178 893.512 344.925C893.486 367.672 884.432 389.48 868.339 405.557C852.246 421.634 830.43 430.667 807.683 430.67C784.95 430.644 763.155 421.602 747.08 405.527C731.005 389.453 721.963 367.658 721.937 344.925C721.959 322.189 731 300.391 747.075 284.313ZM1015.93 446.979C1043 474.048 1079.7 489.273 1117.99 489.314C1156.27 489.27 1192.96 474.045 1220.03 446.979C1247.1 419.914 1262.33 383.217 1262.38 344.939C1262.34 306.656 1247.11 269.952 1220.04 242.88C1192.97 215.809 1156.27 200.58 1117.99 200.536C1079.7 200.576 1043 215.801 1015.93 242.87C988.858 269.939 973.629 306.642 973.585 344.925C973.629 383.208 988.858 419.91 1015.93 446.979ZM1057.38 284.312C1073.45 268.235 1095.25 259.191 1117.99 259.165V259.179C1140.72 259.205 1162.52 268.247 1178.59 284.322C1194.67 300.397 1203.71 322.192 1203.73 344.925C1203.71 367.658 1194.67 389.453 1178.59 405.527C1162.52 421.602 1140.72 430.644 1117.99 430.67C1095.25 430.648 1073.45 421.607 1057.38 405.532C1041.3 389.457 1032.25 367.66 1032.23 344.925C1032.25 322.188 1041.3 300.39 1057.38 284.312ZM679.891 472.692C663.068 455.941 649.72 436.031 640.615 414.106C631.509 392.181 626.826 368.673 626.833 344.933V206.283H568.734V344.933C568.713 376.299 574.89 407.36 586.909 436.332C598.928 465.304 616.553 491.616 638.771 513.757L679.891 472.692Z"/>
    <path d="M2409.07 355.935L2391.64 349.277L2436.1 275.844H2458.42L2409.07 355.935ZM2390.08 412.919V347.123H2409.46V412.919H2390.08ZM2390.47 355.935L2341.12 275.844H2363.25L2407.7 349.277L2390.47 355.935Z"/>
    <path d="M2320.99 412.919L2266.75 275.844H2286.33L2341.55 412.919H2320.99ZM2210.55 412.919L2265.77 275.844H2285.35L2231.11 412.919H2210.55ZM2236.59 376.3V359.068H2315.51V376.3H2236.59Z"/>
    <path d="M2134.61 412.919L2176.12 275.844H2195.51L2153.41 412.919H2134.61ZM2051.38 412.919L2009.87 275.844H2029.45L2070.18 412.919H2051.38ZM2053.54 412.919L2093.09 275.844H2111.31L2071.95 412.919H2053.54ZM2132.85 412.919L2094.27 275.844H2112.48L2151.84 412.919H2132.85Z"/>
    <path d="M1890.26 412.919V275.844H1972.7V293.468H1909.45V334.199H1966.43V351.431H1909.45V395.295H1973.09V412.919H1890.26Z"/>
    <path d="M1788.72 412.919V293.468H1745.83V275.844H1850.99V293.468H1808.1V412.919H1788.72Z"/>
    <path d="M1706.07 412.919L1651.83 275.844H1671.41L1726.63 412.919H1706.07ZM1595.62 412.919L1650.85 275.844H1670.43L1616.19 412.919H1595.62ZM1621.67 376.3V359.068H1700.58V376.3H1621.67Z"/>
    <path d="M1508.26 415.269C1494.42 415.269 1482.09 412.266 1471.25 406.261C1460.55 400.125 1452.13 391.77 1445.99 381.196C1439.99 370.491 1436.98 358.285 1436.98 344.577C1436.98 330.609 1439.99 318.338 1445.99 307.763C1452.13 297.058 1460.55 288.703 1471.25 282.698C1482.09 276.562 1494.42 273.495 1508.26 273.495C1515.83 273.495 1523.08 274.735 1530 277.215C1537.05 279.565 1543.38 282.894 1548.99 287.202C1554.74 291.38 1559.37 296.21 1562.9 301.693L1547.43 311.875C1544.82 307.828 1541.42 304.238 1537.24 301.105C1533.07 297.972 1528.43 295.557 1523.34 293.86C1518.38 292.032 1513.35 291.118 1508.26 291.118C1498.21 291.118 1489.27 293.403 1481.43 297.972C1473.73 302.541 1467.66 308.808 1463.22 316.771C1458.78 324.734 1456.57 334.003 1456.57 344.577C1456.57 354.891 1458.72 364.029 1463.03 371.992C1467.47 379.956 1473.6 386.222 1481.43 390.791C1489.4 395.36 1498.47 397.645 1508.65 397.645C1516.88 397.645 1524.19 395.948 1530.59 392.553C1537.11 389.159 1542.2 384.394 1545.86 378.259C1549.65 372.123 1551.54 365.008 1551.54 356.914L1570.14 355.152C1570.14 367.293 1567.47 377.867 1562.11 386.875C1556.89 395.882 1549.65 402.867 1540.38 407.827C1531.11 412.788 1520.4 415.269 1508.26 415.269ZM1518.25 358.089V342.032H1570.14V356.131L1560.35 358.089H1518.25Z"/>
    <path fill-rule="evenodd" clip-rule="evenodd" d="M1345.47 488.104L1345.47 201.133L1347.97 201.133L1347.97 488.104L1345.47 488.104Z"/>
</svg>