<svg version="1.1" xmlns="http://www.w3.org/2000/svg" viewBox="0 0 1245.6413631563 953.9947916666661" width="2491.2827263126" height="1907.9895833333321">
  <!-- svg-source:excalidraw -->
  
  <defs>
    <style>
      @font-face {
        font-family: "Virgil";
        src: url("https://plus.excalidraw.com/Virgil.woff2");
      }
      @font-face {
        font-family: "Cascadia";
        src: url("https://plus.excalidraw.com/Cascadia.woff2");
      }
    </style>
  </defs>
  <rect x="0" y="0" width="1245.6413631563" height="953.9947916666661" fill="#ffffff"></rect><g stroke-linecap="round" transform="translate(223.8389353155394 228.77175772171995) rotate(0 21.770482733950075 24.051256549534628)"><path d="M-0.09 25.1 C-0.09 25.1, -0.09 25.1, -0.09 25.1 M-0.09 25.1 C-0.09 25.1, -0.09 25.1, -0.09 25.1 M1.24 25.84 C11.64 17.62, 20.93 7.68, 23.82 4.06 M2.57 27.02 C9.75 18.84, 18.83 10.41, 25.22 2.15 M5.29 32 C15.37 22.27, 20.93 13.44, 29.59 4.69 M4.76 31.89 C12.87 22.85, 19.53 15.1, 27.41 4.68 M9.89 31.98 C15.76 24.49, 19.92 17.18, 29.88 7.52 M7.35 34.56 C12.15 28.8, 17.08 23.53, 30.42 7.88 M11.88 35.15 C15.51 29.95, 21.89 26.11, 34.01 10.8 M11.76 36.85 C20.06 26.84, 28.15 16.02, 32.74 11.09 M12.08 38.3 C19.23 32.03, 28.45 22.22, 33.76 15.13 M13.44 40.63 C20.57 32.03, 27.11 23.13, 35.22 15.31 M15.89 41.78 C22.99 34.34, 32.85 26.13, 37.16 17.87 M15.98 42.85 C26.1 33.28, 34.34 23.25, 37.47 17.37 M17.19 47.24 C23.95 41.49, 29.33 33.79, 41.81 21.61 M19.75 45.11 C23.75 41.34, 29.32 35.06, 40.9 21.32 M22.2 50 C26.63 39.97, 31.66 36.47, 44.05 25.31 M21.4 48.92 C26.95 41.67, 34.13 35.52, 42.45 23.34" stroke="#82c91e" stroke-width="0.5" fill="none"></path><path d="M24 -0.74 C27.17 5.3, 31.76 11.34, 44.41 24.41 M21.98 0.79 C25.73 5.87, 30.54 10.15, 43.18 25.11 M45.11 23.42 C35.79 33.95, 27.13 42.46, 23.78 48.67 M44.22 25.55 C38.22 30.68, 31.93 39.18, 21.58 48.49 M22.05 46.73 C13.03 40.88, 5.34 30.91, -1.81 24.07 M22.65 47.9 C14.99 41.03, 7.3 32.69, 0.56 24.32 M-0.67 23.09 C5.42 16.88, 11.59 12.93, 21.21 -1.46 M0.37 24.45 C6.07 17.96, 10.53 12.75, 22.33 0.01" stroke="#000000" stroke-width="1" fill="none"></path></g><g stroke-linecap="round" transform="translate(188.4091340001719 293.95667903347385) rotate(0 21.770482733950075 24.051256549534628)"><path d="M-0.09 25.1 C-0.09 25.1, -0.09 25.1, -0.09 25.1 M-0.09 25.1 C-0.09 25.1, -0.09 25.1, -0.09 25.1 M1.05 28.07 C7.37 23.44, 12 15.33, 25.82 4.03 M2.22 26.85 C10.54 19.57, 18.59 11.19, 23.91 3.68 M6.2 32.71 C14.43 20.42, 23.53 14.64, 26.85 5.91 M6.08 31.38 C11.35 24.02, 17.93 17.17, 26.84 5.52 M6.56 34.6 C14.15 23.42, 21.89 16.48, 28.66 7.16 M9.15 32.95 C15.91 25.19, 23.16 18, 29.02 8.05 M10.13 35.76 C17.39 29.3, 26.02 21.37, 32.33 13.24 M11.84 36.45 C16.35 30.44, 20.08 24.87, 32.63 11.9 M12.26 37.91 C22.21 31.06, 28.61 20.81, 35.65 15.41 M14.59 39.45 C20.41 31.76, 25.93 25.35, 35.83 15.38 M16.14 40.76 C22.63 37.19, 28.35 29.58, 38.78 19.21 M17.21 43.1 C21.81 37.94, 25.92 31.32, 38.29 16.56 M20.58 45.87 C25.27 40.93, 28.02 35.11, 41.51 19.11 M18.45 45.63 C25.37 40.3, 29.75 33.53, 41.22 20.6 M23.74 47.16 C27.51 38.2, 37.8 32.97, 44.19 23.75 M22.66 47.55 C29.77 40.25, 37.98 30.24, 42.22 24.63" stroke="#82c91e" stroke-width="0.5" fill="none"></path><path d="M21.26 -0.31 C25.92 4.68, 30.81 13.09, 42.95 23.16 M22.79 -0.84 C30.19 7.93, 36.54 16.5, 43.65 25.51 M41.96 24.91 C38.81 29.95, 33.65 38.87, 22.57 47.93 M44.09 25.96 C36.12 32.92, 31.53 38.37, 22.39 48.89 M20.62 47.67 C14.65 39.27, 4.81 28.23, -0.93 25.92 M21.79 48.71 C16.33 41.74, 9.28 34.74, -0.68 24.55 M-1.91 24.88 C5.49 17.32, 15.13 7.89, 20.54 -0.95 M-0.55 25.34 C4.4 18.37, 10.6 13.65, 22.01 0.24" stroke="#000000" stroke-width="1" fill="none"></path></g><g stroke-linecap="round" transform="translate(266.9750904713942 293.6809517103038) rotate(0 21.770482733950075 24.051256549534628)"><path d="M-0.09 25.1 C-0.09 25.1, -0.09 25.1, -0.09 25.1 M-0.09 25.1 C-0.09 25.1, -0.09 25.1, -0.09 25.1 M3.28 27.27 C13.15 17.1, 19.52 9.45, 25.8 3.74 M2.05 27.74 C9.15 21.86, 15.13 14.02, 25.45 3.41 M6.91 31.98 C8.49 27.62, 16.57 19.57, 28.07 4.84 M5.58 31.21 C12.48 23.17, 19.88 13.34, 27.68 5.85 M9.19 32.13 C12.55 25.69, 20.19 18.63, 28.3 9.4 M7.53 34.2 C14.53 26.65, 22.05 17.6, 29.19 9.02 M10.74 35.53 C19.17 29.4, 26.14 19.9, 34.78 9.92 M11.43 36.62 C18.23 27.06, 25.48 19.21, 33.44 11.96 M11.88 40.72 C21.09 31.3, 26.87 23.44, 35.93 14.57 M13.42 40.24 C19.42 31.82, 26.69 24.99, 35.9 14.17 M15.12 43.12 C23.17 37.19, 27.16 29.55, 40.13 15.58 M17.46 42.78 C22.35 36.71, 25.75 30.97, 37.48 16.84 M19.22 46.74 C26.66 36.78, 33.2 31.61, 39.01 19.74 M18.97 46.48 C24.22 40.52, 28.04 36.06, 40.5 21.21 M20.9 46.62 C25.94 42.92, 34.72 35.86, 42.63 25.51 M21.29 48.26 C28.19 42.51, 32.36 35.02, 43.51 24.53" stroke="#82c91e" stroke-width="0.5" fill="none"></path><path d="M21.69 -1.31 C26.29 4.52, 33.84 11.93, 41.7 25.74 M21.16 0.79 C29.12 8.57, 36.91 17.66, 44.05 24.58 M43.45 25.96 C37.34 31.77, 35.11 36.55, 21.82 48.01 M44.51 24.15 C40.11 30.9, 34.21 35.23, 22.78 49.01 M21.56 49.49 C14.29 39.81, 4.4 30.43, 0.92 25.09 M22.6 49.08 C16.32 42.32, 10.3 34.65, -0.45 25.28 M-0.12 23.07 C5.27 20.31, 8.77 12.98, 21.05 -1.36 M0.34 24.07 C3.76 20.06, 9.45 14.66, 22.24 -0.76" stroke="#000000" stroke-width="1" fill="none"></path></g><g stroke-linecap="round" transform="translate(233.11359776907148 351.980642250242) rotate(0 21.770482733950075 24.051256549534628)"><path d="M-0.09 25.1 C-0.09 25.1, -0.09 25.1, -0.09 25.1 M-0.09 25.1 C-0.09 25.1, -0.09 25.1, -0.09 25.1 M2.47 29.16 C6.86 21.57, 13.73 18.18, 25.51 2.11 M2.95 28.12 C9.41 21.97, 13.88 15.62, 25.18 1.9 M6.17 29.65 C13.83 25.22, 17.81 16, 27 6 M5.4 30.83 C11.26 24.52, 15.35 18.45, 28.01 5.25 M6.72 32.09 C15.5 24.11, 23.64 13.09, 30.54 8.85 M8.79 33.18 C13.11 29.29, 15.96 23, 30.16 9.02 M10.51 37.33 C19.45 29.29, 25.01 21.91, 31.46 12.14 M11.6 36.1 C17.79 27.54, 25.71 19.69, 33.5 11.81 M14.69 39.64 C18.41 32.88, 23.67 29.58, 35.09 14.86 M14.2 38.86 C19.22 32.81, 25.86 26.65, 34.69 14.49 M17.48 42.93 C23.8 34.87, 28.41 31.4, 36.5 15.95 M17.14 42.93 C21.56 35.67, 26.32 30.03, 37.76 17.41 M20.09 46.68 C21.92 41.68, 28.58 33.76, 39.64 18.96 M19.82 46.56 C26.98 36.79, 35.62 27.24, 41.11 20.61 M20.35 46.38 C29.75 42.07, 35.82 33.28, 44.39 23.32 M22 48.92 C27.24 42.33, 30.76 37.83, 43.41 23.8" stroke="#82c91e" stroke-width="0.5" fill="none"></path><path d="M20.69 -1.32 C28.74 10.9, 38.54 18.18, 44.28 26.09 M22.79 -0.51 C28.49 7.26, 35.13 15.57, 43.12 24.41 M44.5 23.82 C36.57 35.51, 27.63 42.3, 21.91 46.31 M42.69 25.95 C36.65 33.3, 28.19 43, 22.91 48.69 M23.39 48.3 C15.66 39.26, 7.91 34.99, 0.09 24.51 M22.98 48.63 C14.64 40.36, 5.3 30.91, 0.28 24.16 M-1.93 25.44 C6.59 17.56, 10.5 10.74, 20.64 -1.81 M-0.93 24.25 C7.73 16.83, 14.98 8.32, 21.24 0.19" stroke="#000000" stroke-width="1" fill="none"></path></g><g stroke-linecap="round" transform="translate(960.8918723401839 235.4165159210579) rotate(0 21.770482733950075 24.051256549534628)"><path d="M-0.09 25.1 C-0.09 25.1, -0.09 25.1, -0.09 25.1 M-0.09 25.1 C-0.09 25.1, -0.09 25.1, -0.09 25.1 M4.37 26.76 C6.59 23.88, 13.02 18.44, 23.88 2.1 M3.33 28.3 C8.75 21.34, 13.94 16.9, 23.66 2.82 M3.84 33.06 C14.78 21.4, 20.95 12.7, 28.16 4.38 M5.02 31.76 C13.47 20.61, 22.18 12.07, 27.41 6.23 M6.67 32.49 C12.72 27.31, 15.74 23.89, 29.99 6.89 M7.76 34.33 C17.27 23.12, 24.35 14.71, 30.16 9.09 M12.32 37.23 C17.63 29.82, 23.58 22.97, 33.68 12.31 M11.09 35.5 C18.65 27.21, 26.93 19.36, 33.35 10.64 M13.6 39.52 C17.28 34.24, 24.4 27.99, 35.38 14.32 M12.83 39.53 C22.08 30.39, 31.2 19.54, 35.01 14.41 M17.29 43.77 C21.58 35.94, 30.42 26.89, 36.86 15.98 M17.29 42.42 C23.2 33.49, 30.76 24.26, 38.32 16.51 M20.02 44.31 C28.26 37.06, 33.59 25.85, 38.86 22.17 M19.91 45.54 C24.42 40.14, 29.17 34.12, 40.51 20.88 M20.12 49.8 C31.22 40.42, 37.82 31.39, 42.2 22.81 M22.66 48.81 C29.13 38.9, 37.67 31.49, 42.69 24.36" stroke="#be4bdb" stroke-width="0.5" fill="none"></path><path d="M20.68 -1.78 C28.5 6.12, 31.44 14.03, 44.63 24.95 M21.49 -0.12 C29.59 9.41, 38.63 18.36, 42.95 25.78 M42.36 26.36 C40.55 30.78, 33.84 35.21, 20.21 49.47 M44.49 25.92 C35.69 33.41, 29.24 42.15, 22.59 48.13 M22.2 48.26 C15.16 41.98, 12.8 37.66, -0.49 26.3 M22.53 48.72 C16.28 41.18, 9.11 35.68, -0.84 24.66 M0.44 25.49 C3.72 18.65, 8.06 13.63, 20.19 0.74 M-0.75 25.18 C5.62 19.1, 10.91 12.21, 22.19 -0.77" stroke="#000000" stroke-width="1" fill="none"></path></g><g stroke-linecap="round" transform="translate(907.9900944224946 262.9772724414929) rotate(0 21.770482733950075 24.051256549534628)"><path d="M-0.09 25.1 C-0.09 25.1, -0.09 25.1, -0.09 25.1 M-0.09 25.1 C-0.09 25.1, -0.09 25.1, -0.09 25.1 M1.97 26.97 C11.1 20.88, 17.66 11.05, 23.87 1.4 M3.51 28.36 C6.85 23.22, 12.71 16.15, 24.58 3.27 M7.26 33.09 C12.92 21.97, 21.56 12.29, 26.54 7.01 M5.95 30.92 C11.83 22.83, 20.32 14.13, 28.39 4.57 M7.07 33.64 C14.66 23.68, 23.98 16.8, 28.03 10.5 M8.91 34.18 C12.05 27.55, 18 23, 30.24 8.22 M12.21 37.38 C16.65 31.3, 21.63 23.46, 33.85 12.45 M10.48 36.11 C17.62 29.15, 25.2 21.34, 32.18 10.73 M13.48 38.14 C18.4 35.12, 22.37 29.36, 34.84 16.62 M13.49 39.6 C19.94 33.7, 24.7 26.03, 34.93 14.54 M18.13 41.15 C21.81 38.57, 24.3 29.81, 36.89 18.43 M16.78 41.46 C24.64 32.02, 32.21 23.54, 37.42 18.2 M17.66 46.82 C26.38 36.27, 31.16 28.48, 42.07 19.58 M18.88 45.91 C25.65 38.12, 31.81 30.92, 40.78 21.65 M23.54 49.32 C28.45 42.3, 33.7 36.07, 41.7 25.33 M22.54 47.72 C25.85 43.37, 31.64 37.24, 43.25 25.12" stroke="#be4bdb" stroke-width="0.5" fill="none"></path><path d="M20.22 0.87 C27.38 5.41, 34.84 15.46, 43.49 26.58 M21.88 -0.36 C26.96 6.02, 31.08 10.31, 44.32 24.21 M44.91 26.78 C37.86 31.52, 30.83 36.73, 23.36 49.21 M44.46 24.58 C35.19 35.15, 27.17 44.11, 22.03 47.41 M22.15 46.3 C14.78 42.61, 9.69 34.78, 1.3 24.59 M22.62 48.67 C13.17 39.44, 6.2 30.72, -0.34 24.04 M0.49 24.21 C5.25 16.65, 11.82 8.44, 22.74 -1.11 M0.18 25.33 C7.6 17.05, 14.18 8.64, 21.23 0.12" stroke="#000000" stroke-width="1" fill="none"></path></g><g stroke-linecap="round" transform="translate(1001.8188007789931 274.9195079932433) rotate(0 21.770482733950075 24.051256549534628)"><path d="M-0.09 25.1 C-0.09 25.1, -0.09 25.1, -0.09 25.1 M-0.09 25.1 C-0.09 25.1, -0.09 25.1, -0.09 25.1 M2.17 28.96 C9.97 21.85, 14.05 13.31, 23.17 1.06 M3.57 27.05 C10.24 20.67, 14.99 12.55, 25.03 3.62 M7.29 30.35 C13.62 21.46, 21.39 12.17, 29.17 6 M5.11 30.34 C12.37 23.4, 19.02 15.81, 26.73 5.88 M8.23 32.43 C11.62 28.96, 18.07 20.96, 31.64 7.26 M8.77 32.78 C15.2 25.14, 23.71 16.55, 29.36 8.53 M12.36 35.7 C18.61 28.28, 23.12 24.22, 33.99 11.64 M11.09 35.99 C18.92 28.92, 25.89 19.47, 32.27 10.54 M12.11 40.03 C21.86 30.79, 28.88 21.84, 37.14 14.27 M13.57 40.21 C22.06 30.39, 28.76 21.9, 35.06 14.03 M15.51 42.78 C25.73 31.91, 29.79 23.88, 39.35 18.94 M15.82 42.28 C23.11 33.19, 31.38 24.31, 39.12 17.52 M20.16 46.51 C24.84 36.07, 32.27 29.77, 39.48 20.62 M19.25 46.22 C26.75 36.83, 34.86 27.18, 41.55 20.23 M23.05 49.46 C26.34 44.37, 30.39 36.53, 44.21 22.59 M21.46 47.49 C28.49 41.56, 33.76 34.38, 44 24.1" stroke="#be4bdb" stroke-width="0.5" fill="none"></path><path d="M22.87 -0.59 C25.04 6.8, 33.03 11.87, 45.12 23.32 M21.64 0.11 C30.54 9.08, 37.6 19.75, 42.75 24.95 M45.32 25.57 C35.73 33.1, 26.61 42.6, 23.11 50.03 M43.12 25.39 C39.92 31.07, 35.11 35.14, 21.31 47.88 M20.19 47.17 C14.76 39.67, 5.22 32.34, -0.41 26.21 M22.56 47.42 C12.68 39.33, 3.54 29.53, -0.96 24.94 M-0.79 23.54 C3.47 18.5, 7.08 15.52, 20.89 0.69 M0.33 25.01 C4.98 19.02, 9.5 13.84, 22.12 0.48" stroke="#000000" stroke-width="1" fill="none"></path></g><g stroke-linecap="round" transform="translate(930.4002645461896 315.5450061154861) rotate(0 21.770482733950075 24.051256549534628)"><path d="M-0.09 25.1 C-0.09 25.1, -0.09 25.1, -0.09 25.1 M-0.09 25.1 C-0.09 25.1, -0.09 25.1, -0.09 25.1 M4.17 28.94 C12.03 17.84, 18.44 7.86, 22.83 2.86 M2.26 28.59 C10.74 18.21, 17.49 11.12, 25.39 3.26 M4.54 31.57 C9.52 25.6, 14.13 20.78, 28.16 5.65 M4.54 31.18 C11.63 23.95, 18.09 16.26, 28.04 4.64 M7.01 32.06 C13.77 28.33, 15.97 24.55, 28.4 9.78 M7.37 32.95 C13.67 27.73, 19.04 20.83, 29.67 8.41 M10.68 38.14 C17.26 28.24, 27.21 19.85, 33.18 11.97 M10.98 36.81 C18.02 29.91, 22.66 21.97, 32.07 11.94 M14 40.31 C19.86 32.58, 26.01 26.98, 34.79 15.83 M14.18 40.29 C17.7 34.12, 22.55 28.86, 34.55 15.21 M17.13 44.12 C21.79 32.79, 29.31 27.08, 39.85 18.31 M16.64 41.47 C23.84 33.59, 31.25 25.47, 38.43 17.95 M19.86 44.02 C25.68 35.11, 35.62 27.08, 40.52 22.32 M19.57 45.5 C27.8 35.94, 35.76 27.44, 40.13 19.96 M23.2 47.9 C27.44 42.51, 28.97 39.67, 41.47 24.02 M21.23 48.78 C29.78 39.49, 37.09 32.2, 42.98 24.96" stroke="#be4bdb" stroke-width="0.5" fill="none"></path><path d="M21.41 -1.84 C27.56 6.85, 31.81 13.19, 41.86 26.58 M22.11 0.51 C26.92 5.72, 33.49 11.75, 43.49 25.48 M44.11 24.82 C38.42 28.96, 34.69 37.42, 23.93 46.39 M43.93 25.78 C36.16 34.62, 26.77 42.46, 21.78 48.8 M21.07 49.02 C15.26 40.25, 9.66 33.18, 1.21 26.95 M21.32 47.65 C14.38 39.24, 6.01 30.98, -0.06 24.03 M-1.46 24.05 C5.66 15.23, 14.85 7.88, 22.69 -1.86 M0.01 25.24 C4.13 19.51, 9.07 13.82, 22.48 -0.2" stroke="#000000" stroke-width="1" fill="none"></path></g><g stroke-linecap="round" transform="translate(982.2997677272733 338.70799466795734) rotate(0 21.770482733950075 24.051256549534628)"><path d="M-0.09 25.1 C-0.09 25.1, -0.09 25.1, -0.09 25.1 M-0.09 25.1 C-0.09 25.1, -0.09 25.1, -0.09 25.1 M4.15 28.65 C7.77 20.6, 12.51 13.3, 24.62 3.61 M3.8 28.32 C9.6 18.96, 18.72 10.85, 25.02 2.09 M5.76 30.5 C14.48 19.91, 24.36 11.32, 27.81 4.9 M5.38 31.51 C13.3 22.68, 20.77 12.95, 26.8 4.62 M6.65 34.31 C13.5 26.01, 20.3 20.45, 30.92 7.72 M7.54 33.93 C16.2 25.24, 23.19 15.7, 29.55 9.31 M13.13 34.83 C19.35 28.72, 27.11 19.48, 33.51 10.95 M11.79 36.87 C16.42 30.26, 20 24.8, 33.48 11.4 M14.28 39.47 C20.19 31.99, 28.22 24.72, 36.35 13.08 M14.25 39.07 C19.45 32.24, 25.56 24.89, 35.73 15.11 M18.48 40.49 C23.39 31.6, 33.9 25.33, 39.22 18.61 M15.83 41.75 C23.53 33.79, 30.97 27.16, 38.87 17.92 M17.36 44.65 C22.04 41.29, 27.61 34.03, 42.21 22.49 M18.85 46.12 C24.88 38.7, 31.99 31.07, 39.86 19.84 M21.64 49.66 C28.91 37.86, 38.74 28.64, 42.9 25.33 M22.52 48.68 C29.09 40.37, 37.64 31.77, 43.84 24.45" stroke="#be4bdb" stroke-width="0.5" fill="none"></path><path d="M20.16 0.74 C27.74 5.29, 32.78 8.93, 45.12 23.99 M22.51 -0.42 C27.52 7.96, 33.52 14.33, 44.02 24.41 M43.37 24.91 C34.02 34.93, 28.99 44, 20.29 50 M44.32 25.91 C35.6 34.15, 25.89 42.96, 22.7 48.2 M22.92 48.19 C14.95 42.19, 8.26 34.99, 1.95 26.05 M21.55 48.38 C13.06 39.25, 4.98 31.16, -0.97 25.22 M-0.95 23.64 C5.43 17.78, 13.27 9.62, 20.14 -1.51 M0.24 24.24 C7.1 16.29, 14.01 9.6, 21.8 -0.13" stroke="#000000" stroke-width="1" fill="none"></path></g><g stroke-linecap="round" transform="translate(566.438006434998 554.2263090620836) rotate(0 21.770482733950075 24.051256549534628)"><path d="M-0.09 25.1 C-0.09 25.1, -0.09 25.1, -0.09 25.1 M-0.09 25.1 C-0.09 25.1, -0.09 25.1, -0.09 25.1 M3.86 27.02 C7.74 19.65, 12.37 14.58, 25.37 3.98 M3.53 26.81 C10.98 18.93, 19.66 9.85, 23.86 3.8 M4.7 31.66 C13.24 22.37, 23.78 10.76, 27.06 6.75 M5.71 30.91 C12.55 22.99, 18.47 15.85, 26.78 4.82 M8.89 33.75 C12.94 28.22, 19.72 20.13, 28.86 10.02 M8.51 33.93 C16.29 24.7, 23.2 16.29, 30.46 9.26 M9.81 37.05 C19.88 28.41, 26.82 19.18, 32.49 9.75 M11.85 36.71 C16.58 28.67, 22.44 23.02, 32.94 11.34 M13.44 39.76 C17.93 35.97, 22.66 29.69, 33.6 14.42 M13.04 39.4 C19.38 32.17, 25.21 25.69, 35.63 15.53 M14.85 40.86 C20.38 37.18, 28.53 31.09, 39.52 17.58 M16.11 42.31 C20.36 38.04, 25.94 32.54, 38.84 16.74 M17.99 43.87 C27.99 35.85, 34.1 29.77, 42.39 20.43 M19.46 45.51 C25.88 38.7, 32.1 29.11, 39.74 21.55 M23.4 47.47 C27.87 41.13, 34.96 31.41, 44.21 25.1 M22.42 47.95 C27.42 43.48, 32.12 37.6, 43.33 25.18" stroke="#fab005" stroke-width="0.5" fill="none"></path><path d="M22.74 1.09 C29.28 10.37, 35.05 18.95, 42.53 24.76 M21.58 -0.59 C28.5 5.7, 33.36 13.58, 42.95 25.68 M43.45 23.21 C36.59 35.07, 28.78 41.24, 23.89 49.93 M44.45 25.59 C38.1 30.44, 32.29 37.79, 22.1 48.18 M22.09 47.61 C18.8 42.95, 14.09 40.47, 1.05 26.24 M22.28 47.26 C13.98 38.82, 6.42 30.57, 0.22 25.25 M-1.36 23.19 C6.65 17.49, 12.32 10.23, 20.49 0.35 M-0.76 25.19 C6.55 16.75, 15.11 8.11, 21.87 -0.94" stroke="#000000" stroke-width="1" fill="none"></path></g><g stroke-linecap="round" transform="translate(525.6869754610634 602.7747193944924) rotate(0 21.770482733950075 24.051256549534628)"><path d="M-0.09 25.1 C-0.09 25.1, -0.09 25.1, -0.09 25.1 M-0.09 25.1 C-0.09 25.1, -0.09 25.1, -0.09 25.1 M2.23 27.01 C9.2 16.85, 18.5 10.38, 25.74 4.1 M2.01 27.72 C8.21 22.6, 13.25 15.26, 25.56 3.81 M5.86 30.04 C12.66 25, 17.15 17.16, 28.91 5.07 M5.1 31.89 C9.4 25.7, 14.47 18.69, 26.98 5.4 M8.34 31.79 C15.28 26.25, 19.65 20.86, 31.17 9.73 M8.51 34 C12.35 28.27, 16.99 23.94, 30.4 9.34 M12.03 37.22 C17.91 30.05, 23.23 22.69, 31.29 10.96 M11.7 35.54 C16.22 28.75, 23.16 23.03, 32.88 10.65 M13.73 39.23 C22.24 31.35, 28.28 22.32, 34.94 14.57 M13.36 39.32 C20.81 30.41, 29.02 22.82, 36.05 14.22 M15.21 40.88 C24.43 36.05, 31.25 27.72, 38.5 15.67 M16.67 41.41 C24.02 35.27, 30.11 28.38, 37.65 17.99 M17.21 47.07 C25.38 37.2, 35.46 30.63, 40.33 21.17 M18.86 45.79 C27.51 36.36, 33.37 27.28, 41.45 21.31 M21.21 46.96 C30.73 38.03, 36.88 32.19, 43.99 22.93 M21.69 48.51 C27.38 43.04, 31.69 38.24, 44.06 24.92" stroke="#fab005" stroke-width="0.5" fill="none"></path><path d="M23.09 -0.05 C29.17 5, 35 12.43, 43.3 24.28 M21.41 0.78 C28.04 7.82, 36.01 15.05, 44.22 25.89 M41.75 26.36 C37.55 34.51, 27.65 42.07, 23.83 47.27 M44.13 25.03 C35.74 32.8, 29.83 40.94, 22.08 47.2 M21.51 49.41 C15.91 43.47, 12.7 37.46, 1.24 26.13 M21.16 47.77 C16.05 42.75, 10.93 37.67, 0.25 24.6 M-1.81 25.74 C4.01 20.16, 8.26 12.28, 22.35 0.65 M0.19 24.23 C6.69 18.11, 13 9.97, 21.06 -0.92" stroke="#000000" stroke-width="1" fill="none"></path></g><g stroke-linecap="round" transform="translate(594.7620424551942 614.7169549462415) rotate(0 21.770482733950075 24.051256549534628)"><path d="M-0.09 25.1 C-0.09 25.1, -0.09 25.1, -0.09 25.1 M-0.09 25.1 C-0.09 25.1, -0.09 25.1, -0.09 25.1 M2.22 26.31 C8.87 18.86, 19.23 10.99, 25.86 1.48 M2.93 28.17 C11.96 18.74, 18.79 9.66, 25.58 2.44 M4.23 32.67 C13.15 22.95, 19.26 15.75, 27.22 3.93 M6.09 30.23 C12.5 22.44, 18.12 14.71, 27.56 4.79 M6.38 35.4 C11.37 29.28, 16.53 24.13, 30.87 6.93 M8.59 33.13 C12.78 27.74, 18.38 23.05, 30.48 8.5 M12.2 37.36 C20.16 27.1, 27.9 15.17, 32.49 10.73 M10.53 35.64 C17.78 28.16, 26.13 18.94, 32.19 11.6 M13.19 41.53 C20.3 32.54, 26.24 22.93, 35.09 15.79 M13.28 39.44 C20.76 31.33, 29.55 22.8, 34.74 15.04 M15.24 43.34 C26.84 33.71, 34.91 23.31, 36.58 17.3 M15.77 43.11 C21.51 37.6, 26.49 31.12, 38.91 17.84 M20.42 44.49 C23.64 42.09, 30.15 34.87, 41.07 21.81 M19.13 46.55 C24.38 38.01, 29.99 32.7, 41.21 21.38 M20.7 49.48 C26.14 41.57, 34.69 35.97, 41.82 22.47 M22.25 49.27 C29.1 40.92, 36.63 32.88, 43.8 23.31" stroke="#fab005" stroke-width="0.5" fill="none"></path><path d="M21.95 1.58 C24.89 6.65, 30.03 10.03, 42.82 25.22 M22.78 -0.79 C29.41 9.39, 36.43 18.37, 44.43 25.29 M44.9 26.11 C39.19 29.83, 32.88 40.09, 21.16 48.87 M43.57 24.31 C35.38 34.56, 27.55 42.68, 21.1 47.64 M23.3 47.69 C15.59 42.01, 7.82 33.31, 1.13 23.64 M21.66 47.15 C16.27 41.06, 10.93 36.38, -0.4 24.27 M0.74 23.89 C6.41 17.03, 9.77 12.92, 22.65 0.03 M-0.77 25.12 C7.8 16.66, 14.32 7.82, 21.08 0.9" stroke="#000000" stroke-width="1" fill="none"></path></g><g stroke-linecap="round" transform="translate(548.0971455847584 655.3424530684806) rotate(0 21.770482733950075 24.051256549534628)"><path d="M-0.09 25.1 C-0.09 25.1, -0.09 25.1, -0.09 25.1 M-0.09 25.1 C-0.09 25.1, -0.09 25.1, -0.09 25.1 M1.52 25.97 C10.56 19.97, 19.17 11.83, 23.24 4.55 M3.38 28.53 C11.39 18.04, 19.71 10.81, 24.21 3.05 M6.86 31.66 C11.46 23.75, 18.58 16.99, 26.08 5.61 M4.42 31.54 C12.15 21.36, 19.94 13.38, 26.95 4.61 M9.99 32.16 C16.39 24.64, 23.76 18.45, 28.07 7.27 M7.71 33.43 C14.78 26.19, 22.57 18.24, 29.64 9.72 M12.34 36.55 C16.62 30.19, 19.24 24.63, 32.27 12.36 M10.62 35.44 C19.35 27.73, 26.36 18.22, 33.13 11.74 M15.49 39.17 C20.92 30.89, 25.72 25.22, 36.31 15.94 M13.41 38.94 C19.23 34.28, 24.62 27.56, 35.56 15.71 M17.7 43.84 C22.24 38.52, 25.99 30.43, 38.22 15.68 M17.47 42.42 C22.41 37.08, 26.37 31.19, 38.75 16.59 M17.83 45.52 C26.12 41.13, 29.55 33.7, 41.71 20.37 M19.9 45.14 C25.58 36.31, 34.5 29.35, 41.28 20.6 M23.22 46.74 C29.68 40.81, 38.43 29.6, 41.35 25.05 M23.01 48.25 C29.91 40.55, 37.1 33, 42.19 24.17" stroke="#fab005" stroke-width="0.5" fill="none"></path><path d="M23.58 -1.68 C30.97 7.42, 36.42 16.15, 43.76 26.02 M21.21 -0.05 C27.89 5.69, 33.65 13.62, 43.83 24.91 M44.65 26.93 C35.26 33.86, 32.44 37.96, 22.77 49.67 M42.85 24.78 C35.95 34.14, 26.9 42.18, 21.53 48.56 M21.59 49.31 C17.31 42.26, 9.9 35.3, -1.36 24.1 M21.04 48.04 C14.01 40.67, 8.01 32.48, -0.73 24.53 M-1.11 25.69 C3.47 17.61, 10.78 13.98, 22.03 0.48 M0.12 25.48 C4.67 19.45, 8.85 13.07, 22.9 -0.1" stroke="#000000" stroke-width="1" fill="none"></path></g><g stroke-linecap="round" transform="translate(599.9966487658539 678.5054416209568) rotate(0 21.770482733950075 24.051256549534628)"><path d="M-0.09 25.1 C-0.09 25.1, -0.09 25.1, -0.09 25.1 M-0.09 25.1 C-0.09 25.1, -0.09 25.1, -0.09 25.1 M1.18 27.76 C9.55 22.44, 15.76 13.35, 26.31 4.01 M3.74 28.16 C6.71 23.42, 12.94 16.88, 24.82 2.52 M5.86 31.31 C12.21 23.82, 19.69 12.58, 27.76 6.26 M5.73 30.3 C10.53 23.48, 17.57 16.24, 26.77 5.73 M6.75 34.68 C13.98 27.25, 22.5 16.65, 28.41 9.22 M8.02 33.32 C15.66 26.33, 22.61 17.6, 30.86 8.06 M11.53 36.88 C17.98 26.21, 25.23 18.85, 33.9 12.48 M10.42 36.85 C18.77 28.02, 25.3 19.91, 33.27 11.32 M13.14 40.74 C18.55 31.62, 26.56 25.47, 36.46 13.51 M12.9 40.11 C19.86 33.86, 24.74 26.72, 36.23 13.89 M18.2 43.21 C22.93 36.78, 24.86 30.89, 36.59 16.23 M16.78 42.86 C23.82 34.11, 30.3 27.85, 37.51 16.91 M18.87 47.22 C25.05 40.32, 28.21 36.55, 40.27 21.59 M18.48 44.86 C24.09 39.35, 31.58 32.26, 40.5 21.48 M20.48 48.17 C28.75 42.96, 31.72 34.15, 43.94 24.85 M21.99 49.11 C27.75 42.87, 33.67 34.73, 43.06 23.67" stroke="#fab005" stroke-width="0.5" fill="none"></path><path d="M20.32 1.58 C28.62 8.45, 36.55 17.77, 44.56 24.16 M21.95 0.48 C26.8 6.88, 33.48 12.52, 43.45 24.95 M45.47 23.29 C41.06 31.81, 33.79 35.62, 23.57 49.93 M43.32 25.7 C35.91 33.22, 27.18 40.97, 22.46 48.15 M23.21 50.06 C16.84 42.94, 10.86 33.97, -0.9 25.56 M21.94 47.14 C17.56 43.16, 12.2 37.21, -0.47 24.32 M0.69 23.14 C3.01 20.23, 9.78 14.67, 22.48 -1.53 M0.48 24.8 C7.09 16.05, 13.33 9.91, 21.9 -0.33" stroke="#000000" stroke-width="1" fill="none"></path></g><g stroke-linecap="round" transform="translate(628.7603337778892 565.5598144205342) rotate(0 21.770482733950075 24.051256549534628)"><path d="M-0.09 25.1 C-0.09 25.1, -0.09 25.1, -0.09 25.1 M-0.09 25.1 C-0.09 25.1, -0.09 25.1, -0.09 25.1 M2.97 28.52 C9.98 22.61, 13.21 16.48, 25.77 0.98 M3.37 27 C10.29 21.08, 15.43 12.85, 24.28 3.1 M5.5 30.56 C11.91 24.33, 14.59 18.53, 28.42 5.06 M4.5 30.28 C13.35 21.24, 21.78 10.72, 27.89 5.46 M9.27 32.63 C13.71 29.74, 15.01 22.22, 30.37 9.22 M7.9 34.22 C15.99 26.15, 22.31 18.39, 29.2 9.17 M11.86 35.86 C16.94 27.29, 25.35 20.15, 34.01 12.17 M11.83 36.31 C16.15 30.29, 21.16 25.91, 32.85 11.46 M14.7 37.99 C19.02 32.68, 26.34 27.21, 34.03 14.16 M14.08 40.02 C20.08 32.85, 25.18 27.9, 34.41 14.08 M17.57 43.51 C21.63 34.78, 26.24 29.15, 37.15 17.37 M17.22 42.83 C20.27 37.76, 25.82 31.24, 37.82 16.52 M20.56 47.39 C26.79 36.96, 36.1 27.02, 41.49 20.39 M18.21 44.75 C26.21 38.74, 32.64 30.43, 41.38 20.38 M21.91 49.48 C27.69 41.69, 29.89 38.25, 43.73 23.4 M22.84 48.6 C29.47 41.47, 34.22 33.1, 42.55 23.36" stroke="#fab005" stroke-width="0.5" fill="none"></path><path d="M23.58 -1.01 C28.37 6.9, 35.24 16.08, 42.7 23.82 M22.48 -0.59 C30.63 10.36, 38.39 18.84, 43.49 24.1 M41.83 26.89 C37.57 32.88, 28.58 43.79, 23.82 49.28 M44.24 25.1 C36.94 31.04, 29.88 39.39, 22.05 47.86 M23.95 49.15 C15.26 40.93, 4.62 30.46, 0.56 23.31 M21.03 48.32 C16.61 41.54, 9.77 35.31, -0.68 24.1 M-1.86 23.49 C7.9 17.15, 14.99 8.56, 20.47 0.39 M-0.2 24.87 C3.94 18.39, 10.71 13.62, 21.67 0.55" stroke="#000000" stroke-width="1" fill="none"></path></g><g stroke-linecap="round" transform="translate(649.3615433209698 645.3748511670765) rotate(0 21.770482733950075 24.051256549534628)"><path d="M-0.09 25.1 C-0.09 25.1, -0.09 25.1, -0.09 25.1 M-0.09 25.1 C-0.09 25.1, -0.09 25.1, -0.09 25.1 M3.72 28.88 C9.39 20.67, 14.81 17.49, 22.74 2.82 M2.21 28.7 C11.2 18.66, 17.91 10.14, 24.86 2.29 M4.75 32.41 C13.29 19.85, 22.27 12.48, 27.21 7.02 M4.48 30.48 C9.88 25.18, 13.83 20.66, 27.61 4.48 M7.21 34.93 C17.72 22.18, 23.57 14.91, 30.36 9.37 M8.81 34.17 C14.09 27.52, 19.67 21.11, 30.31 9.25 M10.84 34.66 C18.4 26.86, 27.39 19.88, 33.71 9.83 M11.29 36.25 C15.71 30.71, 21.74 24.74, 33 11.2 M11.95 39.33 C21.95 30.88, 31.76 18.88, 34.68 14 M13.98 40.44 C19.16 33.1, 26.52 25.2, 34.6 14.09 M17.87 42.49 C22.31 33.42, 29.88 23.65, 38.28 15.56 M17.19 41.65 C25.36 33.29, 32.08 23.02, 37.43 18.12 M20.74 45.34 C24.59 40.63, 28.94 34.5, 40.29 20.93 M18.09 46.46 C27.97 36.96, 35.54 27.55, 40.28 20.13 M23.22 49.26 C28.49 38.03, 38.1 31.81, 42.28 24.52 M22.33 49.33 C31.05 37.85, 38.52 28.76, 42.24 23.55" stroke="#fab005" stroke-width="0.5" fill="none"></path><path d="M20.99 -0.24 C29.24 9.52, 39.14 17.94, 42.36 26.57 M21.41 0.68 C27.64 5.7, 31.42 10.89, 42.65 25.68 M45.44 26.83 C35.27 33.8, 30.02 43.06, 23.18 48.15 M43.64 25.08 C37.61 30.02, 33.99 35.88, 21.75 48.75 M23.05 49.34 C16.84 40.5, 8.66 35.96, -1.69 24.33 M22.22 48.35 C17.12 42.44, 12.55 37.76, -0.9 25.37 M-1.51 25.35 C5.95 19.12, 11.15 11.45, 22.39 -1.53 M-0.13 24.06 C5.82 18.16, 13.48 9.14, 22.55 0.21" stroke="#000000" stroke-width="1" fill="none"></path></g><g stroke-linecap="round" transform="translate(31.55467478434275 28.591852823892623) rotate(0 602.0433441859786 457.7014694213867)"><path d="M-0.1 -0.29 C260.02 2.85, 519.52 1.97, 1204.71 -0.63 M1204.63 0.71 C1206.08 270.32, 1205.81 540.07, 1204.63 915.85 M1204.82 915.07 C726.98 920.59, 249.99 920.44, 0.02 914.85 M0.06 914.68 C-2.92 661.08, -2.51 405.82, 0.52 -0.16" stroke="#325476" stroke-width="2.5" fill="none" stroke-dasharray="8 10"></path></g><g stroke-linecap="round" transform="translate(331.2581762413188 176.37656745631466) rotate(0 21.770482733950075 24.051256549534628)"><path d="M-0.09 25.1 C-0.09 25.1, -0.09 25.1, -0.09 25.1 M-0.09 25.1 C-0.09 25.1, -0.09 25.1, -0.09 25.1 M4.21 26.38 C11.1 21.27, 14.07 12.55, 25.48 4.43 M3.93 27.35 C10.79 18.65, 18.29 9.85, 25.37 3.1 M4.92 29.59 C12.45 23.81, 18.83 16.6, 25.85 6.32 M5.25 30.45 C9.58 25.88, 15.33 18.98, 28.44 4.66 M9.22 31.84 C14.43 25.34, 23.9 16.82, 28.76 8.23 M8.83 33.4 C14.69 26.42, 19.75 21.16, 30.47 8.92 M10.84 35.64 C19.38 29.44, 26.25 18.66, 31.55 9.63 M10.54 36.5 C19.2 27.54, 26.5 18.71, 33.88 11.17 M13.44 40.69 C22.61 29.73, 28.42 21.49, 34.77 13.23 M13.09 39.94 C21.83 30.22, 27.52 21.99, 35.84 15.57 M14.93 42.21 C22.22 32.58, 31.34 23.37, 39.87 17.59 M17.26 42.74 C23.33 33.23, 30.84 25.72, 37.74 17.34 M19.42 46.71 C26.52 37.22, 34.64 27.23, 42.37 19.63 M19.56 46.28 C23.7 40.93, 28.1 34.28, 41.29 20.02 M20.82 46.62 C28.91 41.88, 33.36 34.53, 44.91 23.99 M22.81 47.46 C29.87 38.56, 36.93 29.4, 43.34 24.38" stroke="#82c91e" stroke-width="0.5" fill="none"></path><path d="M21.28 0.22 C31.06 8.66, 37.02 20.53, 41.96 24.91 M22.89 0.29 C29.26 8.51, 35.96 17.94, 44.09 25.96 M42.7 25.77 C40.7 31.98, 35.69 35.16, 20.62 47.67 M42.64 24.53 C36.06 33.6, 27.39 42.75, 21.79 48.71 M23.13 46.74 C12.23 39.61, 2.69 29.19, -1.91 24.88 M21.6 47.37 C17 42.78, 12.1 39.13, -0.55 25.34 M0.65 25.03 C5.22 18.26, 9.69 13.07, 22.23 0.96 M-0.92 25.9 C6.08 17.89, 12.89 11.43, 21.1 -0.01" stroke="#000000" stroke-width="1" fill="none"></path></g><g stroke-linecap="round" transform="translate(295.8283749259458 241.56148876806765) rotate(0 21.770482733950075 24.051256549534628)"><path d="M-0.09 25.1 C-0.09 25.1, -0.09 25.1, -0.09 25.1 M-0.09 25.1 C-0.09 25.1, -0.09 25.1, -0.09 25.1 M1.59 29.45 C11.33 17.29, 17.49 11.57, 26.19 3.7 M2.56 27.96 C7.31 22.12, 12.01 16.96, 24.86 2.92 M3.78 31.27 C12.04 23.75, 18.89 15.39, 28.48 3.84 M4.64 30.27 C10.61 25.53, 14.21 20.76, 26.82 5.92 M6.42 32.17 C13.87 27.93, 19.32 20.22, 29.38 8 M7.99 34.62 C15 25.27, 23.75 16.73, 30.06 9.09 M10.62 37.27 C18.54 30.27, 21.85 21.26, 31.16 12.44 M11.48 36.64 C17.63 29.18, 23.9 22.71, 32.7 11.95 M14.66 40.84 C17.04 33.79, 22.14 28.58, 33.75 15.59 M13.91 40.61 C19.71 30.92, 27.02 23.97, 36.09 15.25 M16.57 40.58 C23.23 33.55, 30.31 26.22, 38.5 18.46 M17.1 41.5 C23.86 32.66, 32.59 24.32, 38.26 18.19 M20.06 45.28 C28.18 35.72, 35.82 28.26, 39.53 19.09 M19.63 45.5 C23.9 40.18, 26.91 36.17, 39.92 20.74 M20.36 49.21 C30.1 39.08, 37.25 33.12, 42.87 25.7 M21.19 48.32 C28.12 39.54, 34.81 32.81, 43.26 23.62" stroke="#82c91e" stroke-width="0.5" fill="none"></path><path d="M22.22 1.02 C26.5 5.13, 34.28 10.96, 43.45 25.96 M22.29 -0.09 C27.31 4.93, 33.23 12.4, 44.51 24.15 M44.31 26.57 C37.07 35.21, 26.8 41.77, 21.56 49.49 M43.07 25.46 C36.93 31.72, 30.86 38.91, 22.6 49.08 M20.64 47.2 C14.66 38.39, 5.67 30.03, -0.12 23.07 M21.27 47.63 C14.18 39.67, 8.14 32.58, 0.34 24.07 M0.03 25.48 C3.37 19.7, 8.3 13.93, 22.96 -0.41 M0.9 24.9 C6.23 18.57, 13.08 9.94, 21.99 -0.27" stroke="#000000" stroke-width="1" fill="none"></path></g><g stroke-linecap="round" transform="translate(374.39433139715356 241.28576144489944) rotate(0 21.770482733950075 24.051256549534628)"><path d="M-0.09 25.1 C-0.09 25.1, -0.09 25.1, -0.09 25.1 M-0.09 25.1 C-0.09 25.1, -0.09 25.1, -0.09 25.1 M4.66 28.92 C8.68 18.95, 19.17 11.66, 25.46 1.37 M3.17 27.42 C11.58 17.36, 20.7 8.26, 24.69 2.55 M5.46 31.92 C13.11 23.47, 19.9 13.39, 26 3.8 M4.46 31.39 C10.63 24.17, 16.76 18.25, 28.08 4.89 M6.76 34.13 C16.4 25.51, 22.59 15.41, 29.14 9.8 M9.21 32.96 C15.98 25.66, 23.58 16.76, 30.23 8.58 M12.25 37.38 C16.78 29.46, 19.28 23.89, 33.97 11.35 M11.62 36.22 C17.81 28.86, 24.96 21.62, 33.49 10.58 M14.81 38.41 C19.12 31.83, 25.27 24.1, 36.11 15.4 M14.58 38.8 C21.12 29.71, 30.39 21.96, 35.78 15.4 M14.94 41.14 C23.49 32.85, 31.72 27.23, 39.38 18.39 M15.86 41.81 C20.61 37.24, 25.87 30.76, 39.11 18.28 M18.62 46.5 C24.66 38.75, 32.81 30.47, 38.98 18.85 M18.85 46.38 C26.57 35.64, 35.64 26.26, 40.63 21.39 M22.94 49 C28.68 40.52, 38.56 31.66, 44.59 24.69 M22.06 47.82 C29.41 38.31, 38.84 29.54, 42.5 23.82" stroke="#82c91e" stroke-width="0.5" fill="none"></path><path d="M23.02 -0.84 C26.94 8.74, 32.73 14.28, 44.5 23.82 M21.91 -0.05 C29.26 9.83, 38.64 19.31, 42.69 25.95 M45.11 26.82 C36.19 34.18, 25.2 42.74, 23.39 48.3 M44 25.05 C36.46 32.66, 29.87 39.72, 22.98 48.63 M21.1 48.66 C12.21 38.92, 4.03 31.1, -1.93 25.44 M21.53 47.42 C14.05 40.81, 7.25 33.29, -0.93 24.25 M0.48 23.47 C7.29 15.53, 14.12 10.08, 21.59 -0.25 M-0.1 24.67 C5.31 19.86, 8.39 14.5, 21.73 0.32" stroke="#000000" stroke-width="1" fill="none"></path></g><g stroke-linecap="round" transform="translate(340.5328386948454 299.58545198483944) rotate(0 21.770482733950075 24.051256549534628)"><path d="M-0.09 25.1 C-0.09 25.1, -0.09 25.1, -0.09 25.1 M-0.09 25.1 C-0.09 25.1, -0.09 25.1, -0.09 25.1 M4.12 25.89 C10.97 19.38, 20.47 10.29, 23.13 4.78 M2.63 28 C11.14 18.51, 20.61 7.88, 24.31 3.47 M6.12 30.72 C13.34 22.12, 18.91 15.05, 25.96 4.2 M5.58 31.12 C11.09 24.54, 17.87 16.59, 27.05 6.04 M8.72 34.12 C16.57 24.1, 22.91 15.88, 30.95 9.7 M7.55 34.08 C16.43 25.29, 23.71 16.3, 29.72 7.97 M12.36 37.08 C15.77 27.96, 21.54 23.52, 32.89 11.24 M11.2 36.37 C15.82 31.69, 20.57 25.8, 32.11 11.24 M12.38 39.07 C18.97 31.89, 24.41 26.08, 35.92 16.24 M12.76 38.98 C18.09 34.06, 24.76 28.03, 35.92 14.89 M15.5 42.27 C19.41 38.79, 26.01 33.05, 39.31 16.03 M16.17 41.42 C24.95 33.1, 31.84 25.65, 39.19 17.25 M19.84 45.29 C25.93 39.52, 31.5 28.24, 38.75 22.27 M19.73 45.29 C25.78 37.68, 33.2 28.36, 41.29 21.28 M22.73 47.55 C27.58 44.39, 32.01 38.35, 43.57 26.15 M21.56 47.51 C29.45 39.65, 38.06 29.86, 42.71 23.53" stroke="#82c91e" stroke-width="0.5" fill="none"></path><path d="M21.16 -1.18 C29.29 4.91, 33.32 14.06, 42.36 26.36 M21.95 -0.9 C31.13 10.3, 39.79 18.61, 44.49 25.92 M45.36 26.18 C38.12 29.76, 32.07 38.49, 22.2 48.26 M43.59 24.75 C39.57 29.74, 35 35.77, 22.53 48.72 M22.56 46.41 C13.65 37.86, 6.36 29.6, 0.44 25.49 M21.32 47.2 C16.81 41.43, 11.06 35.04, -0.75 25.18 M-1.53 25.39 C5.78 16.86, 15.59 7.91, 21.75 -1.88 M-0.33 25.55 C4.56 18.92, 8.93 14.33, 22.32 0.11" stroke="#000000" stroke-width="1" fill="none"></path></g><g stroke-linecap="round" transform="translate(498.1464250344943 696.5109238048026) rotate(0 21.770482733950075 24.051256549534628)"><path d="M-0.09 25.1 C-0.09 25.1, -0.09 25.1, -0.09 25.1 M-0.09 25.1 C-0.09 25.1, -0.09 25.1, -0.09 25.1 M1.09 27.72 C8.66 23.4, 13.69 14.54, 26.54 4.81 M3.21 27.19 C9.34 21.53, 14.34 14.45, 25.24 2.63 M4.91 32.68 C8.52 26.14, 13.68 17.87, 26.36 5.36 M5.31 30.14 C11.59 24.23, 16.47 18.43, 28.2 5.89 M8.71 34.27 C11.75 27.98, 16.58 24.44, 30.84 9.85 M8.66 34.16 C14.39 27.33, 19.94 20.32, 29.12 8.58 M12.06 34.74 C15.51 27.84, 23.65 22.99, 32.77 9.86 M11.35 36.1 C18.98 28.25, 25.41 19.81, 32.78 11.32 M13.03 38.91 C20.52 29.61, 29.4 23.11, 36.76 13.62 M12.95 38.99 C20.92 32.68, 27.81 24.52, 35.41 13.93 M16.63 40.47 C24.77 35.34, 30.61 28.86, 36.95 18.53 M15.78 43.03 C23.64 33.92, 32.35 26.42, 38.17 17.62 M18.64 45.84 C28.33 35.77, 32.5 26.29, 42.17 21.79 M18.63 45.04 C27.38 35.94, 34.42 28.46, 41.18 20.19 M21.29 48.67 C28.29 42.93, 32.43 38.48, 45.03 25.63 M21.25 47.7 C26.76 43.57, 30.33 37.95, 42.42 25.01" stroke="#fab005" stroke-width="0.5" fill="none"></path><path d="M20.82 1.57 C27.24 7.77, 36.49 14.46, 44.91 26.78 M21.1 0.68 C29.61 9.19, 35.28 17.39, 44.46 24.58 M44.72 25.05 C35.05 32.58, 30.53 41.03, 22.15 46.3 M43.29 25.65 C37.99 31.47, 33.71 37.24, 22.62 48.67 M20.31 47.43 C15.09 42.69, 9.96 37.89, 0.49 24.21 M21.1 48.47 C16.56 43.05, 11.18 36.7, 0.18 25.33 M0.39 23.47 C6.8 18.59, 12.79 9.84, 20.12 -1.83 M0.55 25.21 C7.71 15.31, 16.93 5.88, 22.11 0.46" stroke="#000000" stroke-width="1" fill="none"></path></g><g stroke-linecap="round" transform="translate(457.3953940605843 745.059334137215) rotate(0 21.770482733950075 24.051256549534628)"><path d="M-0.09 25.1 C-0.09 25.1, -0.09 25.1, -0.09 25.1 M-0.09 25.1 C-0.09 25.1, -0.09 25.1, -0.09 25.1 M2.93 28.63 C12.76 19.18, 18.06 10.64, 26.57 2.07 M2.4 28.51 C10.29 19.71, 16.74 12.21, 24.39 2.06 M6.88 29.35 C12.94 21.64, 17.3 14.09, 27.52 4.14 M4.33 31.94 C9.27 26.02, 14.34 20.58, 28.05 4.5 M8.86 32.52 C12.49 27.33, 18.88 23.49, 30.99 8.17 M8.75 34.23 C17.04 24.21, 25.13 13.39, 29.72 8.46 M9.72 34.92 C16.87 28.65, 26.08 18.84, 31.4 11.75 M11.08 37.25 C18.21 28.66, 24.75 19.75, 32.85 11.93 M12.87 39.16 C19.97 31.71, 29.84 23.5, 34.14 15.25 M12.96 40.22 C23.08 30.65, 31.32 20.62, 34.46 14.75 M14.83 43.86 C21.58 38.11, 26.96 30.41, 39.45 18.23 M17.38 41.73 C21.38 37.96, 26.96 31.68, 38.54 17.94 M19.18 47.37 C23.79 37.14, 29 33.42, 41.69 21.93 M18.38 46.3 C24.11 38.84, 31.47 32.48, 40.09 19.96 M22.41 50.18 C28.99 41.67, 36.87 33.85, 44.51 22.4 M21.44 48.61 C28.62 40.79, 34.29 33.54, 43.9 24.74" stroke="#fab005" stroke-width="0.5" fill="none"></path><path d="M23.57 -1.58 C29.37 9.87, 35.84 19.05, 45.32 25.57 M22.68 0.55 C29.23 6.62, 35.48 15.67, 43.12 25.39 M43.59 23.62 C35.17 35.26, 27.65 42.76, 20.19 47.17 M44.19 24.79 C36.71 33.91, 29.18 41.55, 22.56 47.42 M21.33 46.19 C16.21 40.09, 11.15 36.63, -0.79 23.54 M22.37 47.55 C16.95 41.14, 10.29 36.41, 0.33 25.01 M-1.53 25.23 C8.28 16.45, 14.19 6.88, 20.17 1.81 M0.21 24.1 C6.44 17.36, 13.15 10.51, 22.46 -0.24" stroke="#000000" stroke-width="1" fill="none"></path></g><g stroke-linecap="round" transform="translate(526.4704610546996 757.0015696889668) rotate(0 21.770482733950075 24.051256549534628)"><path d="M-0.09 25.1 C-0.09 25.1, -0.09 25.1, -0.09 25.1 M-0.09 25.1 C-0.09 25.1, -0.09 25.1, -0.09 25.1 M3.83 29.34 C11.83 17.32, 20.69 11.8, 23.83 3.29 M3.72 28 C8.81 20.84, 15.21 14.2, 23.82 2.9 M3.55 31.98 C11.35 20.54, 19.32 13.34, 26.3 3.78 M6.13 30.32 C13.11 22.33, 20.57 14.89, 26.65 4.67 M7.11 33.14 C14.37 26.68, 23.01 18.75, 29.32 10.62 M8.82 33.83 C13.33 27.82, 17.06 22.25, 29.61 9.28 M9.9 34.53 C19.84 27.68, 26.25 17.43, 33.29 12.03 M12.23 36.07 C18.05 28.38, 23.56 21.97, 33.46 12 M13.12 38.14 C19.61 34.57, 25.33 26.95, 35.77 16.59 M14.19 40.47 C18.79 35.32, 22.9 28.7, 35.27 13.94 M18.22 42.49 C22.91 37.55, 25.66 31.73, 39.14 15.74 M16.09 42.25 C23.01 36.92, 27.39 30.15, 38.85 17.22 M20.72 44.54 C24.71 35.32, 35.22 29.83, 41.83 20.37 M19.64 44.93 C27 37.35, 35.44 27.06, 39.86 21.25 M23.92 48.14 C30.66 40.79, 38.07 33.71, 41.29 24.14 M22.34 48.53 C26.88 42.17, 31.96 37.42, 43.62 24.66" stroke="#fab005" stroke-width="0.5" fill="none"></path><path d="M20.42 -0.09 C28.37 5.1, 34.33 14.51, 44.11 24.82 M22.55 0.96 C27.28 8.18, 35.42 14.2, 43.93 25.78 M42.16 24.56 C36.64 34.24, 26.98 41.27, 21.07 49.02 M43.34 25.6 C37.9 32.7, 30.99 39.77, 21.32 47.65 M20.09 47.98 C13.05 40.89, 8.26 32.08, -1.46 24.05 M21.45 48.45 C16.18 42.07, 12.18 37.8, 0.01 25.24 M0.23 25.96 C4.47 19.32, 7.91 12.15, 23.81 -0.21 M-0.9 24.99 C5.47 18.59, 11.74 12.04, 21.76 0.79" stroke="#000000" stroke-width="1" fill="none"></path></g><g stroke-linecap="round" transform="translate(560.4687523774364 707.8444291632604) rotate(0 21.770482733950075 24.051256549534628)"><path d="M-0.09 25.1 C-0.09 25.1, -0.09 25.1, -0.09 25.1 M-0.09 25.1 C-0.09 25.1, -0.09 25.1, -0.09 25.1 M4.54 28.6 C5.99 24.4, 13.94 16.51, 25.05 2.22 M3.21 27.83 C9.9 20.04, 17.08 10.46, 24.66 3.23 M6.17 29.5 C9.71 22.86, 17.53 15.59, 25.94 6.02 M4.51 31.58 C11.71 23.79, 19.43 14.51, 26.82 5.64 M7.73 32.91 C16.15 26.77, 23.12 17.28, 31.76 7.3 M8.41 33.99 C15.21 24.43, 22.46 16.58, 30.42 9.34 M9.51 37.34 C18.72 27.92, 24.51 20.06, 33.57 11.19 M11.05 36.86 C17.06 28.44, 24.33 21.61, 33.54 10.79 M12.1 40.5 C20.15 34.56, 24.14 26.93, 37.11 12.96 M14.44 40.16 C19.33 34.09, 22.73 28.34, 34.46 14.22 M16.85 43.37 C24.3 33.41, 30.84 28.24, 36.65 16.36 M16.61 43.1 C21.85 37.14, 25.67 32.68, 38.14 17.83 M17.88 43.99 C23.11 40.08, 32.06 32.81, 40.27 22.13 M18.27 45.64 C25.35 39.69, 29.68 32.01, 41.15 21.15 M21.88 49.85 C27.99 43.84, 34.38 33.83, 43.02 23.13 M22.27 47.77 C26.39 42.44, 32.09 38.45, 43.54 23.98" stroke="#fab005" stroke-width="0.5" fill="none"></path><path d="M21.91 0.96 C26.21 7.56, 34.37 12.8, 43.37 24.91 M22.96 -0.85 C27.65 6.06, 30.82 10.79, 44.32 25.91 M43.11 26.39 C36.01 33.3, 26.28 40.5, 22.92 48.19 M44.14 25.98 C38.29 31.94, 32.39 37, 21.55 48.38 M21.88 46.17 C17.78 43.41, 11.8 36.48, -0.95 23.64 M22.34 47.17 C16.55 43.31, 13.02 38.31, 0.24 24.24 M0.96 24.59 C6.96 15.1, 12.41 10.81, 21.79 -0.65 M-0.01 24.73 C8.09 16.42, 16.05 7.19, 22.79 -0.63" stroke="#000000" stroke-width="1" fill="none"></path></g><g stroke-linecap="round" transform="translate(836.3362175181264 176.6889853634434) rotate(0 21.770482733950075 24.051256549534628)"><path d="M-0.09 25.1 C-0.09 25.1, -0.09 25.1, -0.09 25.1 M-0.09 25.1 C-0.09 25.1, -0.09 25.1, -0.09 25.1 M3.81 26.27 C11.27 22.07, 15.05 13.08, 23.98 3.38 M3.04 27.45 C8.74 21.32, 12.67 15.44, 24.99 2.63 M3.7 29.46 C12.74 21.19, 21.13 9.89, 28.18 5.47 M5.77 30.55 C10.22 26.51, 13.2 20.07, 27.8 5.64 M7.49 34.71 C16.43 26.67, 21.99 19.28, 28.44 9.52 M8.58 33.48 C14.77 24.91, 22.69 17.07, 30.48 9.19 M12.33 36.26 C16.05 29.5, 21.31 26.21, 32.73 11.48 M11.84 35.48 C16.86 29.44, 23.5 23.27, 32.32 11.11 M14.46 40.31 C20.78 32.25, 25.39 28.78, 33.48 13.33 M14.13 40.31 C18.54 33.04, 23.3 27.41, 34.74 14.78 M17.73 43.3 C19.56 38.3, 26.21 30.38, 37.28 15.59 M17.46 43.18 C24.62 33.41, 33.25 23.86, 38.75 17.23 M17.33 43.76 C26.93 39.22, 33.19 30.2, 42.03 19.94 M18.98 46.29 C24.37 39.54, 28.04 34.86, 41.05 20.42 M23.59 48.84 C30.44 42.18, 33.32 33.07, 42.01 22.51 M21.51 47.97 C26.29 43.46, 32.42 37.44, 42.86 24.21" stroke="#be4bdb" stroke-width="0.5" fill="none"></path><path d="M22.96 -1.18 C31.32 11.25, 38.67 18.75, 43.45 23.21 M21.15 0.95 C30.98 8.58, 38.39 18.98, 44.45 25.59 M44.93 25.2 C37.02 30.14, 29.41 39.85, 22.09 47.61 M44.52 25.53 C36.25 34.13, 27.08 41.55, 22.28 47.26 M20.07 48.54 C16.85 41.14, 9.04 34.83, -1.36 23.19 M21.07 47.35 C14.89 40.72, 7.32 32.85, -0.76 25.19 M-0.41 24.75 C3 17.47, 11.61 13.51, 21.35 1.11 M-0.27 25.32 C7.39 17.44, 14.1 9.75, 21.37 0.96" stroke="#000000" stroke-width="1" fill="none"></path></g><g stroke-linecap="round" transform="translate(783.4344396004408 204.2497418838857) rotate(0 21.770482733950075 24.051256549534628)"><path d="M-0.09 25.1 C-0.09 25.1, -0.09 25.1, -0.09 25.1 M-0.09 25.1 C-0.09 25.1, -0.09 25.1, -0.09 25.1 M1.48 29.68 C12.19 18.28, 18.14 9.84, 25.14 1.76 M2.66 28.38 C10.87 17.52, 19.33 9.26, 24.39 3.61 M3.66 29.86 C9.84 24.53, 13 20.95, 27.63 3.51 M4.74 31.7 C14.51 20.2, 21.84 11.51, 27.8 5.72 M9.3 34.61 C14.61 27.19, 20.57 20.34, 30.66 9.69 M8.07 32.88 C15.63 24.59, 23.91 16.74, 30.33 8.02 M11.24 36.14 C14.92 30.86, 22.03 24.61, 33.02 10.94 M10.46 36.15 C19.71 27.01, 28.84 16.16, 32.65 11.03 M14.27 41.15 C18.56 33.31, 27.41 24.27, 33.85 13.35 M14.27 39.8 C20.18 30.87, 27.74 21.64, 35.3 13.88 M17.66 40.94 C25.9 33.68, 31.23 22.47, 36.5 18.79 M17.54 42.16 C22.06 36.76, 26.8 30.74, 38.14 17.5 M17.1 47.18 C28.45 37.51, 35.31 28.2, 39.84 19.43 M19.64 46.18 C26.35 36.01, 35.13 28.33, 40.32 20.98 M22.57 50.3 C31.76 36.95, 38.48 28.22, 41.39 22.9 M21.71 47.68 C29.68 41.17, 36.14 32.57, 43.09 23.56" stroke="#be4bdb" stroke-width="0.5" fill="none"></path><path d="M20.82 1.36 C28.52 5.99, 31.33 10.85, 41.75 26.36 M22.95 0.92 C29.48 9.45, 38.33 18.86, 44.13 25.03 M43.74 25.15 C36.71 29.56, 34.45 35.92, 21.51 49.41 M44.07 25.62 C38.22 30.99, 31.19 38.4, 21.16 47.77 M22.44 48.6 C16.72 41.71, 12.07 37.08, -1.81 25.74 M21.25 48.28 C16.87 42.26, 11.4 35.83, 0.19 24.23 M-0.25 23.12 C4.9 19.06, 13.38 8.82, 23.11 0.42 M0.32 25.11 C5.08 19.57, 10.03 13.93, 22.96 -0.85" stroke="#000000" stroke-width="1" fill="none"></path></g><g stroke-linecap="round" transform="translate(877.2631459569338 216.1919774356311) rotate(0 21.770482733950075 24.051256549534628)"><path d="M-0.09 25.1 C-0.09 25.1, -0.09 25.1, -0.09 25.1 M-0.09 25.1 C-0.09 25.1, -0.09 25.1, -0.09 25.1 M4.89 29.71 C10.31 18.87, 18.7 9.48, 23.52 4.39 M3.59 27.54 C9.25 19.69, 17.52 11.25, 25.37 1.94 M4.06 31.02 C11.87 20.8, 21.42 13.66, 25.67 7.12 M5.9 31.55 C9.17 24.76, 15.27 20.04, 27.87 4.84 M9.19 34.75 C13.63 28.67, 18.61 20.84, 30.83 9.83 M7.47 33.48 C14.6 26.52, 22.18 18.71, 29.16 8.11 M11.12 34.76 C16.04 31.74, 20.01 25.98, 32.48 13.24 M11.13 36.22 C17.58 30.32, 22.33 22.65, 32.57 11.16 M15.11 38.52 C18.79 35.94, 21.28 27.19, 33.87 15.81 M13.76 38.84 C21.62 29.39, 29.19 20.91, 34.4 15.58 M15.3 43.44 C24.01 32.89, 28.79 25.1, 39.71 16.2 M16.52 42.53 C23.29 34.74, 29.45 27.54, 38.42 18.27 M20.52 46.69 C25.6 39.5, 31 33.09, 39.33 21.95 M19.53 45.1 C22.98 40.58, 28.91 34.29, 40.88 21.74 M24.04 49.78 C26.18 41.26, 32.98 32.64, 41.78 24.7 M21.42 49.16 C29.42 41.23, 35.32 33.13, 42.45 24.02" stroke="#be4bdb" stroke-width="0.5" fill="none"></path><path d="M23.36 1.78 C29.06 7.34, 34.75 13.11, 44.9 26.11 M22.92 -0.42 C30.71 10.49, 39.78 20.21, 43.57 24.31 M43.69 23.19 C36.77 32.37, 31.81 37.38, 23.3 47.69 M44.16 25.56 C35.32 32.99, 28.52 40.92, 21.66 47.15 M22.49 47.31 C14.3 40.41, 7.92 32.76, 0.74 23.89 M22.18 48.43 C14.87 40.45, 6.74 32.68, -0.77 25.12 M-1.88 23.17 C9.51 16.12, 14.71 8.74, 22.42 -1.8 M0.11 25.46 C6.41 18.24, 12.61 10.92, 21.15 -0.94" stroke="#000000" stroke-width="1" fill="none"></path></g><g stroke-linecap="round" transform="translate(805.844609724144 256.8174755578725) rotate(0 21.770482733950075 24.051256549534628)"><path d="M-0.09 25.1 C-0.09 25.1, -0.09 25.1, -0.09 25.1 M-0.09 25.1 C-0.09 25.1, -0.09 25.1, -0.09 25.1 M4.92 26.97 C11.03 18.35, 18.57 9.32, 26.15 3.38 M2.74 26.97 C9.8 20.26, 16.25 12.91, 23.71 3.26 M5.21 29.8 C8.75 26.17, 15.35 18.01, 29.27 3.88 M5.75 30.16 C12.42 22.25, 21.15 13.4, 27 5.15 M9.34 33.08 C15.59 25.66, 20.1 21.6, 30.97 9.02 M8.07 33.37 C15.9 26.3, 22.87 16.85, 29.25 7.91 M9.75 36.66 C19.5 27.41, 26.52 18.46, 34.78 10.89 M11.2 36.83 C19.69 27.01, 26.39 18.53, 32.7 10.65 M12.49 40.15 C22.71 29.29, 26.77 21.25, 36.33 16.31 M12.81 39.66 C20.09 30.56, 28.36 21.69, 36.1 14.9 M17.8 43.13 C22.47 32.69, 29.91 26.39, 37.12 17.24 M16.89 42.84 C24.38 33.46, 32.5 23.8, 39.18 16.85 M20.04 46.84 C23.47 41.58, 27.65 33.58, 41.85 19.21 M18.44 44.86 C25.65 38.72, 31.12 31.31, 41.64 20.72 M23.52 46.55 C29.84 38.02, 36.08 28.74, 43.59 24.55 M22.9 48.89 C27.71 42.44, 32.33 36.2, 42.91 23.69" stroke="#be4bdb" stroke-width="0.5" fill="none"></path><path d="M23.78 0.57 C29.18 8.46, 35.06 18.63, 44.65 26.93 M21.58 0.39 C27.64 6.08, 32.07 10.56, 42.85 24.78 M41.74 24.07 C36.52 33.65, 27.15 43.4, 21.59 49.31 M44.1 24.32 C34.65 34.6, 25.69 43.17, 21.04 48.04 M21.21 46.65 C16.53 42.1, 11.2 39.5, -1.11 25.69 M22.33 48.12 C17.86 42.59, 13.26 37.81, 0.12 25.48 M-1.83 26.81 C5.98 17.56, 13.44 11.64, 20.2 -0.02 M0.46 24.76 C6.7 17.54, 12.87 10.5, 21.06 0.17" stroke="#000000" stroke-width="1" fill="none"></path></g><g stroke-linecap="round" transform="translate(857.744112905244 279.980464110351) rotate(0 21.770482733950075 24.051256549534628)"><path d="M-0.09 25.1 C-0.09 25.1, -0.09 25.1, -0.09 25.1 M-0.09 25.1 C-0.09 25.1, -0.09 25.1, -0.09 25.1 M2.18 28.19 C7.01 22.4, 11.48 17.75, 25.14 3.03 M2.17 27.81 C9.09 20.77, 15.38 13.29, 25.02 2.02 M3.99 29.44 C10.9 25.54, 13.25 21.6, 26.04 6.4 M4.35 30.33 C10.81 24.91, 16.34 17.83, 27.31 5.03 M7.67 35.52 C14.24 25.62, 24.19 17.23, 30.16 9.35 M7.96 34.18 C15 27.29, 19.64 19.35, 29.05 9.32 M11.64 36.93 C17.5 29.2, 23.65 23.6, 32.43 12.46 M11.81 36.91 C15.33 30.74, 20.19 25.48, 32.19 11.83 M14.12 41.5 C18.78 30.17, 26.29 24.46, 36.83 15.68 M13.62 38.85 C20.82 30.97, 28.23 22.85, 35.42 15.33 M17.49 40.64 C23.32 31.73, 33.26 23.7, 38.15 18.94 M17.2 42.13 C25.44 32.56, 33.4 24.06, 37.77 16.58 M20.18 45.27 C24.55 39.73, 26.21 36.73, 39.11 20.64 M18.21 46.16 C26.99 36.6, 34.54 29.05, 40.62 21.58 M20.29 48.29 C27.58 38.69, 34.16 33.06, 43.43 23.03 M22.63 48.81 C27.52 41.87, 32.6 35.37, 42.57 24.51" stroke="#be4bdb" stroke-width="0.5" fill="none"></path><path d="M22.57 -0.18 C27.26 4.04, 33.91 12.96, 45.47 23.29 M22.39 0.78 C31.64 10.55, 39.26 19.14, 43.32 25.7 M42.61 25.92 C36.98 31.47, 31.52 38.71, 23.21 50.06 M42.86 24.55 C36.37 32.42, 28.16 40.45, 21.94 47.14 M20.54 47.15 C13.5 38.77, 8.51 32.03, 0.69 23.14 M22.01 48.34 C16.26 43.18, 11.32 37.92, 0.48 24.8 M1.81 24.79 C5.9 19.13, 13.29 9.04, 21.98 -0.55 M-0.24 25.79 C6.66 17.55, 13.75 7.34, 22.17 -0.23" stroke="#000000" stroke-width="1" fill="none"></path></g><g stroke-linecap="round" transform="translate(135.09815023153897 132.0267926776114) rotate(0 177.45242497025288 148.39691867969327)"><path d="M170.28 2.09 C187.18 -0.84, 204.14 3.52, 221.59 6.93 C239.03 10.34, 259.42 14.54, 274.93 22.57 C290.45 30.59, 303.22 43.23, 314.68 55.1 C326.14 66.96, 337.07 80.36, 343.7 93.76 C350.32 107.17, 353.41 120.53, 354.42 135.51 C355.44 150.5, 353.85 168.82, 349.78 183.67 C345.71 198.53, 339.42 212.15, 330 224.63 C320.58 237.12, 306.56 248.66, 293.26 258.59 C279.95 268.51, 266.34 277.76, 250.16 284.2 C233.99 290.64, 214.23 295.41, 196.19 297.22 C178.14 299.03, 159.06 298.07, 141.89 295.06 C124.72 292.05, 108.58 286.45, 93.18 279.15 C77.79 271.85, 62.36 262.51, 49.51 251.27 C36.67 240.03, 23.98 225.69, 16.11 211.71 C8.24 197.72, 4.66 182.36, 2.28 167.34 C-0.1 152.32, -1.05 136.43, 1.84 121.6 C4.73 106.78, 11.23 91.33, 19.64 78.41 C28.05 65.48, 39.74 54.59, 52.29 44.06 C64.84 33.53, 79.28 22.42, 94.97 15.21 C110.65 7.99, 127.34 2.75, 146.4 0.79 C165.46 -1.17, 192.28 0.77, 209.31 3.44 C226.35 6.1, 249.17 14.75, 248.6 16.8" stroke="#0eb1e4" stroke-width="4.5" fill="none" stroke-dasharray="8 12"></path></g><g stroke-linecap="round" transform="translate(745.3077190500526 132.42172571903575) rotate(0 177.45242497025288 148.39691867969327)"><path d="M40.93 53.87 C49.47 41.4, 66.58 34.57, 81.05 26.68 C95.52 18.79, 110.54 10.65, 127.73 6.51 C144.91 2.38, 165.88 1.57, 184.14 1.88 C202.4 2.2, 220.85 3.81, 237.28 8.39 C253.71 12.97, 268.36 20.32, 282.73 29.36 C297.1 38.4, 312.83 50.61, 323.47 62.61 C334.12 74.6, 341.51 86.91, 346.6 101.31 C351.68 115.71, 353.94 133.79, 353.97 149 C354 164.22, 351.78 178.51, 346.76 192.59 C341.73 206.67, 333.95 220.8, 323.81 233.47 C313.67 246.13, 300.23 259.24, 285.91 268.58 C271.58 277.92, 254.76 285.03, 237.85 289.49 C220.94 293.95, 202.69 294.97, 184.44 295.35 C166.19 295.73, 146.1 295.73, 128.38 291.78 C110.65 287.82, 93.22 279.98, 78.08 271.62 C62.95 263.25, 48.86 253.05, 37.55 241.58 C26.24 230.1, 16.32 216.85, 10.2 202.77 C4.08 188.69, 1.92 172.29, 0.86 157.09 C-0.21 141.9, -0.22 126.32, 3.8 111.6 C7.82 96.88, 14.55 82.04, 24.99 68.77 C35.43 55.51, 53.98 40.68, 66.45 32 C78.93 23.33, 98.33 14.53, 99.81 16.7" stroke="#0eb1e4" stroke-width="4.5" fill="none" stroke-dasharray="8 12"></path></g><g stroke-linecap="round" transform="translate(393.55049355752453 514.7556457571454) rotate(0 186.65753629129335 162.20466455319138)"><path d="M302.58 38.16 C318.05 45.19, 332.89 57.85, 343.47 70.97 C354.06 84.1, 360.84 101.36, 366.12 116.89 C371.39 132.41, 375.34 148.76, 375.14 164.13 C374.93 179.51, 370.71 193.97, 364.89 209.15 C359.08 224.33, 350.53 241.88, 340.24 255.23 C329.95 268.58, 317.65 279.74, 303.14 289.24 C288.63 298.74, 270.04 306.42, 253.17 312.22 C236.3 318.02, 219.89 322.43, 201.9 324.02 C183.92 325.61, 163.28 325.06, 145.25 321.77 C127.21 318.47, 109.13 312.18, 93.68 304.27 C78.23 296.36, 64.78 285.88, 52.55 274.3 C40.33 262.72, 28.93 249.36, 20.33 234.79 C11.73 220.22, 3.97 203.02, 0.97 186.88 C-2.02 170.74, -0.28 153.84, 2.37 137.95 C5.03 122.07, 9.28 106, 16.9 91.58 C24.52 77.17, 35.67 62.83, 48.1 51.47 C60.54 40.1, 75.93 31.43, 91.5 23.38 C107.08 15.33, 124.03 7.26, 141.53 3.19 C159.04 -0.89, 178.48 -2.38, 196.54 -1.09 C214.6 0.2, 232.8 5.03, 249.89 10.91 C266.98 16.78, 289.14 29.29, 299.07 34.14 C309.01 38.98, 306.7 37.35, 309.48 39.99 C312.27 42.63, 317.57 47.64, 315.81 49.98" stroke="#0eb1e4" stroke-width="4.5" fill="none" stroke-dasharray="8 12"></path></g><g stroke-linecap="round" transform="translate(10 10) rotate(0 22.557716369628906 22.557716369628906)"><path d="M37.06 5.28 C40.76 8.38, 43.93 13.88, 44.77 18.64 C45.61 23.4, 44.51 29.65, 42.09 33.84 C39.68 38.02, 34.81 42.1, 30.27 43.76 C25.73 45.41, 19.38 45.41, 14.84 43.76 C10.3 42.1, 5.44 38.02, 3.02 33.84 C0.61 29.65, -0.5 23.4, 0.34 18.64 C1.18 13.88, 4.36 8.38, 8.06 5.28 C11.76 2.17, 17.72 0, 22.56 0 C27.39 0, 33.36 2.17, 37.06 5.28" stroke="none" stroke-width="0" fill="#325476"></path><path d="M37.06 5.28 C40.76 8.38, 43.93 13.88, 44.77 18.64 C45.61 23.4, 44.51 29.65, 42.09 33.84 C39.68 38.02, 34.81 42.1, 30.27 43.76 C25.73 45.41, 19.38 45.41, 14.84 43.76 C10.3 42.1, 5.44 38.02, 3.02 33.84 C0.61 29.65, -0.5 23.4, 0.34 18.64 C1.18 13.88, 4.36 8.38, 8.06 5.28 C11.76 2.17, 17.72 0, 22.56 0 C27.39 0, 33.36 2.17, 37.06 5.28" stroke="transparent" stroke-width="1" fill="none"></path></g><g stroke-linecap="round"><g transform="translate(28.70925060215677 14.979767072767572) rotate(0 8.991027587199426 11.330655768694442)" fill-rule="evenodd"><path d="M0 0 L0.12 22.1 L17.98 22.66 L0 0" stroke="none" stroke-width="0" fill="white" fill-rule="evenodd"></path><path d="M0 0 C0.03 6.53, 0.07 13.05, 0.12 22.1 M0 0 C0.05 8.64, 0.09 17.29, 0.12 22.1 M0.12 22.1 C5.56 22.27, 11 22.44, 17.98 22.66 M0.12 22.1 C5.97 22.28, 11.83 22.47, 17.98 22.66 M17.98 22.66 C13.81 17.41, 9.64 12.15, 0 0 M17.98 22.66 C13.96 17.59, 9.94 12.52, 0 0 M0 0 C0 0, 0 0, 0 0 M0 0 C0 0, 0 0, 0 0" stroke="#325476" stroke-width="1" fill="none"></path></g></g><g stroke-linecap="round"><g transform="translate(31.228768334614415 23.739234195002155) rotate(0 -7.963279119962692 9.401501321520072)" fill-rule="evenodd"><path d="M-4.18 0 L-3.66 14.74 L-12.27 18.8 L-4.18 0" stroke="none" stroke-width="0" fill="white" fill-rule="evenodd"></path><path d="M-4.18 0 C-4.07 3.1, -3.96 6.21, -3.66 14.74 M-4.18 0 C-4 5.29, -3.81 10.58, -3.66 14.74 M-3.66 14.74 C-6.03 15.86, -8.4 16.98, -12.27 18.8 M-3.66 14.74 C-5.52 15.62, -7.37 16.49, -12.27 18.8 M-12.27 18.8 C-10.57 14.86, -8.88 10.92, -4.18 0 M-12.27 18.8 C-9.68 12.8, -7.1 6.79, -4.18 0 M-4.18 0 C-4.18 0, -4.18 0, -4.18 0 M-4.18 0 C-4.18 0, -4.18 0, -4.18 0" stroke="#325476" stroke-width="1" fill="none"></path></g></g><g stroke-linecap="round"><g transform="translate(24.414147170419483 42.27860045870966) rotate(0 13.318807046700158 -0.20485043951407533)" fill-rule="evenodd"><path d="M0 -1.57 L26.64 -4.59 L7.14 4.18 L0 -1.57" stroke="none" stroke-width="0" fill="white" fill-rule="evenodd"></path><path d="M0 -1.57 C9.81 -2.68, 19.62 -3.79, 26.64 -4.59 M0 -1.57 C8.06 -2.48, 16.12 -3.4, 26.64 -4.59 M26.64 -4.59 C19.52 -1.39, 12.4 1.82, 7.14 4.18 M26.64 -4.59 C21.44 -2.25, 16.25 0.08, 7.14 4.18 M7.14 4.18 C4.73 2.25, 2.33 0.31, 0 -1.57 M7.14 4.18 C5.55 2.9, 3.95 1.61, 0 -1.57 M0 -1.57 C0 -1.57, 0 -1.57, 0 -1.57 M0 -1.57 C0 -1.57, 0 -1.57, 0 -1.57" stroke="#325476" stroke-width="1" fill="none"></path></g></g><g stroke-linecap="round" transform="translate(252.90222639728927 102.90763350252473) rotate(0 58.0354643375739 31.647432616616925)"><path d="M0 0 L116.07 0 L116.07 63.29 L0 63.29" stroke="none" stroke-width="0" fill="white"></path><path d="M0 0 C41.24 0, 82.49 0, 116.07 0 M0 0 C26.83 0, 53.66 0, 116.07 0 M116.07 0 C116.07 17.69, 116.07 35.38, 116.07 63.29 M116.07 0 C116.07 12.94, 116.07 25.88, 116.07 63.29 M116.07 63.29 C87.68 63.29, 59.3 63.29, 0 63.29 M116.07 63.29 C79.91 63.29, 43.75 63.29, 0 63.29 M0 63.29 C0 50, 0 36.71, 0 0 M0 63.29 C0 50.26, 0 37.23, 0 0" stroke="white" stroke-width="1" fill="none"></path></g><g transform="translate(257.2175363309325 109.18453034639651) rotate(0 54.62649794942001 35.86588249204351)"><text x="0" y="50.731764984086865" font-family="Virgil, Segoe UI Emoji" font-size="57.38352601087645px" fill="#0eb1e4" text-anchor="start" style="white-space: pre;" direction="ltr">{...}</text></g><g stroke-linecap="round" transform="translate(291.66146002901223 129.56239224934097) rotate(306.4434673675469 6.58759472499662 1.9945406072126843)"><path d="M10.82 0.47 C11.9 0.74, 12.83 1.23, 13.08 1.65 C13.32 2.07, 13 2.62, 12.29 2.99 C11.59 3.36, 10.17 3.72, 8.84 3.87 C7.51 4.01, 5.66 4.01, 4.33 3.87 C3.01 3.72, 1.59 3.36, 0.88 2.99 C0.18 2.62, -0.15 2.07, 0.1 1.65 C0.35 1.23, 1.27 0.74, 2.35 0.47 C3.43 0.19, 5.18 0, 6.59 0 C8 0, 9.74 0.19, 10.82 0.47" stroke="none" stroke-width="0" fill="#0eb1e4"></path><path d="M10.82 0.47 C11.9 0.74, 12.83 1.23, 13.08 1.65 C13.32 2.07, 13 2.62, 12.29 2.99 C11.59 3.36, 10.17 3.72, 8.84 3.87 C7.51 4.01, 5.66 4.01, 4.33 3.87 C3.01 3.72, 1.59 3.36, 0.88 2.99 C0.18 2.62, -0.15 2.07, 0.1 1.65 C0.35 1.23, 1.27 0.74, 2.35 0.47 C3.43 0.19, 5.18 0, 6.59 0 C8 0, 9.74 0.19, 10.82 0.47" stroke="#0eb1e4" stroke-width="1" fill="none"></path></g><g stroke-linecap="round" transform="translate(320.50215946148455 129.48168987481858) rotate(44.97704373639855 6.58759472499662 1.9945406072126843)"><path d="M10.82 0.47 C11.9 0.74, 12.83 1.23, 13.08 1.65 C13.32 2.07, 13 2.62, 12.29 2.99 C11.59 3.36, 10.17 3.72, 8.84 3.87 C7.51 4.01, 5.66 4.01, 4.33 3.87 C3.01 3.72, 1.59 3.36, 0.88 2.99 C0.18 2.62, -0.15 2.07, 0.1 1.65 C0.35 1.23, 1.27 0.74, 2.35 0.47 C3.43 0.19, 5.18 0, 6.59 0 C8 0, 9.74 0.19, 10.82 0.47" stroke="none" stroke-width="0" fill="#0eb1e4"></path><path d="M10.82 0.47 C11.9 0.74, 12.83 1.23, 13.08 1.65 C13.32 2.07, 13 2.62, 12.29 2.99 C11.59 3.36, 10.17 3.72, 8.84 3.87 C7.51 4.01, 5.66 4.01, 4.33 3.87 C3.01 3.72, 1.59 3.36, 0.88 2.99 C0.18 2.62, -0.15 2.07, 0.1 1.65 C0.35 1.23, 1.27 0.74, 2.35 0.47 C3.43 0.19, 5.18 0, 6.59 0 C8 0, 9.74 0.19, 10.82 0.47" stroke="#0eb1e4" stroke-width="1" fill="none"></path></g><g stroke-linecap="round" transform="translate(314.4934618932839 128.57407641113423) rotate(14.251129668680113 4.544416351557288 7.87672590488387)"><path d="M7.47 1.84 C8.21 2.93, 8.85 4.85, 9.02 6.51 C9.19 8.17, 8.97 10.35, 8.48 11.82 C7.99 13.28, 7.01 14.7, 6.1 15.28 C5.18 15.86, 3.91 15.86, 2.99 15.28 C2.08 14.7, 1.1 13.28, 0.61 11.82 C0.12 10.35, -0.1 8.17, 0.07 6.51 C0.24 4.85, 0.88 2.93, 1.62 1.84 C2.37 0.76, 3.57 0, 4.54 0 C5.52 0, 6.72 0.76, 7.47 1.84" stroke="none" stroke-width="0" fill="#0eb1e4"></path><path d="M7.47 1.84 C8.21 2.93, 8.85 4.85, 9.02 6.51 C9.19 8.17, 8.97 10.35, 8.48 11.82 C7.99 13.28, 7.01 14.7, 6.1 15.28 C5.18 15.86, 3.91 15.86, 2.99 15.28 C2.08 14.7, 1.1 13.28, 0.61 11.82 C0.12 10.35, -0.1 8.17, 0.07 6.51 C0.24 4.85, 0.88 2.93, 1.62 1.84 C2.37 0.76, 3.57 0, 4.54 0 C5.52 0, 6.72 0.76, 7.47 1.84" stroke="#0eb1e4" stroke-width="1" fill="none"></path></g><g stroke-linecap="round" transform="translate(301.21359593313355 131.4537782745524) rotate(334.0400495723031 3.8983758650119853 6.756959703393477)"><path d="M6.4 1.58 C7.04 2.51, 7.59 4.16, 7.74 5.58 C7.88 7.01, 7.69 8.88, 7.27 10.14 C6.86 11.39, 6.02 12.61, 5.23 13.11 C4.45 13.6, 3.35 13.6, 2.57 13.11 C1.78 12.61, 0.94 11.39, 0.52 10.14 C0.1 8.88, -0.09 7.01, 0.06 5.58 C0.2 4.16, 0.75 2.51, 1.39 1.58 C2.03 0.65, 3.06 0, 3.9 0 C4.73 0, 5.76 0.65, 6.4 1.58" stroke="none" stroke-width="0" fill="#0eb1e4"></path><path d="M6.4 1.58 C7.04 2.51, 7.59 4.16, 7.74 5.58 C7.88 7.01, 7.69 8.88, 7.27 10.14 C6.86 11.39, 6.02 12.61, 5.23 13.11 C4.45 13.6, 3.35 13.6, 2.57 13.11 C1.78 12.61, 0.94 11.39, 0.52 10.14 C0.1 8.88, -0.09 7.01, 0.06 5.58 C0.2 4.16, 0.75 2.51, 1.39 1.58 C2.03 0.65, 3.06 0, 3.9 0 C4.73 0, 5.76 0.65, 6.4 1.58" stroke="#0eb1e4" stroke-width="1" fill="none"></path></g><g stroke-linecap="round" transform="translate(298.65443257747575 116.87288085275122) rotate(0 13.15633691203459 12.964851748331057)"><path d="M21.61 3.03 C23.77 4.82, 25.62 7.98, 26.11 10.71 C26.6 13.45, 25.96 17.04, 24.55 19.45 C23.14 21.85, 20.3 24.2, 17.66 25.15 C15.01 26.1, 11.31 26.1, 8.66 25.15 C6.01 24.2, 3.17 21.85, 1.76 19.45 C0.35 17.04, -0.29 13.45, 0.2 10.71 C0.69 7.98, 2.54 4.82, 4.7 3.03 C6.86 1.25, 10.34 0, 13.16 0 C15.98 0, 19.45 1.25, 21.61 3.03" stroke="none" stroke-width="0" fill="#0eb1e4"></path><path d="M21.61 3.03 C23.77 4.82, 25.62 7.98, 26.11 10.71 C26.6 13.45, 25.96 17.04, 24.55 19.45 C23.14 21.85, 20.3 24.2, 17.66 25.15 C15.01 26.1, 11.31 26.1, 8.66 25.15 C6.01 24.2, 3.17 21.85, 1.76 19.45 C0.35 17.04, -0.29 13.45, 0.2 10.71 C0.69 7.98, 2.54 4.82, 4.7 3.03 C6.86 1.25, 10.34 0, 13.16 0 C15.98 0, 19.45 1.25, 21.61 3.03" stroke="#0eb1e4" stroke-width="1" fill="none"></path></g><g stroke-linecap="round" transform="translate(302.2819697277682 111.04577370204925) rotate(310.82721671153615 0.8717207654085541 5.520600593931249)"><path d="M0.44 0 L1.74 0.44 L1.31 11.04 L0 10.61 L0.44 0" stroke="none" stroke-width="0" fill="#0eb1e4"></path><path d="M0.44 0 M0.44 0 C0.66 0, 0.88 0, 1.31 0 M0.44 0 C0.78 0, 1.13 0, 1.31 0 M1.31 0 C1.6 0, 1.74 0.15, 1.74 0.44 M1.31 0 C1.6 0, 1.74 0.15, 1.74 0.44 M1.74 0.44 C1.74 2.75, 1.74 5.06, 1.74 10.61 M1.74 0.44 C1.74 2.54, 1.74 4.65, 1.74 10.61 M1.74 10.61 C1.74 10.9, 1.6 11.04, 1.31 11.04 M1.74 10.61 C1.74 10.9, 1.6 11.04, 1.31 11.04 M1.31 11.04 C0.97 11.04, 0.63 11.04, 0.44 11.04 M1.31 11.04 C1.07 11.04, 0.83 11.04, 0.44 11.04 M0.44 11.04 C0.15 11.04, 0 10.9, 0 10.61 M0.44 11.04 C0.15 11.04, 0 10.9, 0 10.61 M0 10.61 C0 6.92, 0 3.24, 0 0.44 M0 10.61 C0 7.53, 0 4.46, 0 0.44 M0 0.44 C0 0.15, 0.15 0, 0.44 0 M0 0.44 C0 0.15, 0.15 0, 0.44 0" stroke="#0eb1e4" stroke-width="1" fill="none"></path></g><g stroke-linecap="round" transform="translate(293.2114861021382 108.39279372942337) rotate(0 3.69215374157568 3.993086574452491)"><path d="M6.07 0.93 C6.67 1.48, 7.19 2.46, 7.33 3.3 C7.47 4.14, 7.29 5.25, 6.89 5.99 C6.49 6.73, 5.7 7.45, 4.95 7.75 C4.21 8.04, 3.17 8.04, 2.43 7.75 C1.69 7.45, 0.89 6.73, 0.49 5.99 C0.1 5.25, -0.08 4.14, 0.06 3.3 C0.19 2.46, 0.71 1.48, 1.32 0.93 C1.92 0.38, 2.9 0, 3.69 0 C4.48 0, 5.46 0.38, 6.07 0.93" stroke="none" stroke-width="0" fill="#0eb1e4"></path><path d="M6.07 0.93 C6.67 1.48, 7.19 2.46, 7.33 3.3 C7.47 4.14, 7.29 5.25, 6.89 5.99 C6.49 6.73, 5.7 7.45, 4.95 7.75 C4.21 8.04, 3.17 8.04, 2.43 7.75 C1.69 7.45, 0.89 6.73, 0.49 5.99 C0.1 5.25, -0.08 4.14, 0.06 3.3 C0.19 2.46, 0.71 1.48, 1.32 0.93 C1.92 0.38, 2.9 0, 3.69 0 C4.48 0, 5.46 0.38, 6.07 0.93" stroke="#0eb1e4" stroke-width="1" fill="none"></path></g><g stroke-linecap="round" transform="translate(866.3024949519763 97.4117991519388) rotate(0 58.0354643375739 31.647432616616925)"><path d="M0 0 L116.07 0 L116.07 63.29 L0 63.29" stroke="none" stroke-width="0" fill="white"></path><path d="M0 0 C41.66 0, 83.32 0, 116.07 0 M0 0 C31.96 0, 63.92 0, 116.07 0 M116.07 0 C116.07 13.64, 116.07 27.28, 116.07 63.29 M116.07 0 C116.07 13.26, 116.07 26.53, 116.07 63.29 M116.07 63.29 C78.99 63.29, 41.91 63.29, 0 63.29 M116.07 63.29 C74.83 63.29, 33.58 63.29, 0 63.29 M0 63.29 C0 38.24, 0 13.19, 0 0 M0 63.29 C0 46.54, 0 29.78, 0 0" stroke="white" stroke-width="1" fill="none"></path></g><g transform="translate(870.6178048856195 103.68869599581058) rotate(0 54.62649794942001 35.86588249204351)"><text x="0" y="50.731764984086865" font-family="Virgil, Segoe UI Emoji" font-size="57.38352601087645px" fill="#0eb1e4" text-anchor="start" style="white-space: pre;" direction="ltr">{...}</text></g><g stroke-linecap="round" transform="translate(905.0617285836993 124.06655789875504) rotate(306.4434673675469 6.58759472499662 1.9945406072126843)"><path d="M10.82 0.47 C11.9 0.74, 12.83 1.23, 13.08 1.65 C13.32 2.07, 13 2.62, 12.29 2.99 C11.59 3.36, 10.17 3.72, 8.84 3.87 C7.51 4.01, 5.66 4.01, 4.33 3.87 C3.01 3.72, 1.59 3.36, 0.88 2.99 C0.18 2.62, -0.15 2.07, 0.1 1.65 C0.35 1.23, 1.27 0.74, 2.35 0.47 C3.43 0.19, 5.18 0, 6.59 0 C8 0, 9.74 0.19, 10.82 0.47" stroke="none" stroke-width="0" fill="#0eb1e4"></path><path d="M10.82 0.47 C11.9 0.74, 12.83 1.23, 13.08 1.65 C13.32 2.07, 13 2.62, 12.29 2.99 C11.59 3.36, 10.17 3.72, 8.84 3.87 C7.51 4.01, 5.66 4.01, 4.33 3.87 C3.01 3.72, 1.59 3.36, 0.88 2.99 C0.18 2.62, -0.15 2.07, 0.1 1.65 C0.35 1.23, 1.27 0.74, 2.35 0.47 C3.43 0.19, 5.18 0, 6.59 0 C8 0, 9.74 0.19, 10.82 0.47" stroke="#0eb1e4" stroke-width="1" fill="none"></path></g><g stroke-linecap="round" transform="translate(933.9024280161716 123.98585552423265) rotate(44.97704373639855 6.58759472499662 1.9945406072126843)"><path d="M10.82 0.47 C11.9 0.74, 12.83 1.23, 13.08 1.65 C13.32 2.07, 13 2.62, 12.29 2.99 C11.59 3.36, 10.17 3.72, 8.84 3.87 C7.51 4.01, 5.66 4.01, 4.33 3.87 C3.01 3.72, 1.59 3.36, 0.88 2.99 C0.18 2.62, -0.15 2.07, 0.1 1.65 C0.35 1.23, 1.27 0.74, 2.35 0.47 C3.43 0.19, 5.18 0, 6.59 0 C8 0, 9.74 0.19, 10.82 0.47" stroke="none" stroke-width="0" fill="#0eb1e4"></path><path d="M10.82 0.47 C11.9 0.74, 12.83 1.23, 13.08 1.65 C13.32 2.07, 13 2.62, 12.29 2.99 C11.59 3.36, 10.17 3.72, 8.84 3.87 C7.51 4.01, 5.66 4.01, 4.33 3.87 C3.01 3.72, 1.59 3.36, 0.88 2.99 C0.18 2.62, -0.15 2.07, 0.1 1.65 C0.35 1.23, 1.27 0.74, 2.35 0.47 C3.43 0.19, 5.18 0, 6.59 0 C8 0, 9.74 0.19, 10.82 0.47" stroke="#0eb1e4" stroke-width="1" fill="none"></path></g><g stroke-linecap="round" transform="translate(927.8937304479709 123.07824206054829) rotate(14.251129668680113 4.544416351557288 7.87672590488387)"><path d="M7.47 1.84 C8.21 2.93, 8.85 4.85, 9.02 6.51 C9.19 8.17, 8.97 10.35, 8.48 11.82 C7.99 13.28, 7.01 14.7, 6.1 15.28 C5.18 15.86, 3.91 15.86, 2.99 15.28 C2.08 14.7, 1.1 13.28, 0.61 11.82 C0.12 10.35, -0.1 8.17, 0.07 6.51 C0.24 4.85, 0.88 2.93, 1.62 1.84 C2.37 0.76, 3.57 0, 4.54 0 C5.52 0, 6.72 0.76, 7.47 1.84" stroke="none" stroke-width="0" fill="#0eb1e4"></path><path d="M7.47 1.84 C8.21 2.93, 8.85 4.85, 9.02 6.51 C9.19 8.17, 8.97 10.35, 8.48 11.82 C7.99 13.28, 7.01 14.7, 6.1 15.28 C5.18 15.86, 3.91 15.86, 2.99 15.28 C2.08 14.7, 1.1 13.28, 0.61 11.82 C0.12 10.35, -0.1 8.17, 0.07 6.51 C0.24 4.85, 0.88 2.93, 1.62 1.84 C2.37 0.76, 3.57 0, 4.54 0 C5.52 0, 6.72 0.76, 7.47 1.84" stroke="#0eb1e4" stroke-width="1" fill="none"></path></g><g stroke-linecap="round" transform="translate(914.6138644878206 125.95794392396647) rotate(334.0400495723031 3.8983758650119853 6.756959703393477)"><path d="M6.4 1.58 C7.04 2.51, 7.59 4.16, 7.74 5.58 C7.88 7.01, 7.69 8.88, 7.27 10.14 C6.86 11.39, 6.02 12.61, 5.23 13.11 C4.45 13.6, 3.35 13.6, 2.57 13.11 C1.78 12.61, 0.94 11.39, 0.52 10.14 C0.1 8.88, -0.09 7.01, 0.06 5.58 C0.2 4.16, 0.75 2.51, 1.39 1.58 C2.03 0.65, 3.06 0, 3.9 0 C4.73 0, 5.76 0.65, 6.4 1.58" stroke="none" stroke-width="0" fill="#0eb1e4"></path><path d="M6.4 1.58 C7.04 2.51, 7.59 4.16, 7.74 5.58 C7.88 7.01, 7.69 8.88, 7.27 10.14 C6.86 11.39, 6.02 12.61, 5.23 13.11 C4.45 13.6, 3.35 13.6, 2.57 13.11 C1.78 12.61, 0.94 11.39, 0.52 10.14 C0.1 8.88, -0.09 7.01, 0.06 5.58 C0.2 4.16, 0.75 2.51, 1.39 1.58 C2.03 0.65, 3.06 0, 3.9 0 C4.73 0, 5.76 0.65, 6.4 1.58" stroke="#0eb1e4" stroke-width="1" fill="none"></path></g><g stroke-linecap="round" transform="translate(912.0547011321628 111.37704650216529) rotate(0 13.15633691203459 12.964851748331057)"><path d="M21.61 3.03 C23.77 4.82, 25.62 7.98, 26.11 10.71 C26.6 13.45, 25.96 17.04, 24.55 19.45 C23.14 21.85, 20.3 24.2, 17.66 25.15 C15.01 26.1, 11.31 26.1, 8.66 25.15 C6.01 24.2, 3.17 21.85, 1.76 19.45 C0.35 17.04, -0.29 13.45, 0.2 10.71 C0.69 7.98, 2.54 4.82, 4.7 3.03 C6.86 1.25, 10.34 0, 13.16 0 C15.98 0, 19.45 1.25, 21.61 3.03" stroke="none" stroke-width="0" fill="#0eb1e4"></path><path d="M21.61 3.03 C23.77 4.82, 25.62 7.98, 26.11 10.71 C26.6 13.45, 25.96 17.04, 24.55 19.45 C23.14 21.85, 20.3 24.2, 17.66 25.15 C15.01 26.1, 11.31 26.1, 8.66 25.15 C6.01 24.2, 3.17 21.85, 1.76 19.45 C0.35 17.04, -0.29 13.45, 0.2 10.71 C0.69 7.98, 2.54 4.82, 4.7 3.03 C6.86 1.25, 10.34 0, 13.16 0 C15.98 0, 19.45 1.25, 21.61 3.03" stroke="#0eb1e4" stroke-width="1" fill="none"></path></g><g stroke-linecap="round" transform="translate(915.6822382824553 105.54993935146331) rotate(310.82721671153615 0.8717207654085541 5.520600593931249)"><path d="M0.44 0 L1.74 0.44 L1.31 11.04 L0 10.61 L0.44 0" stroke="none" stroke-width="0" fill="#0eb1e4"></path><path d="M0.44 0 M0.44 0 C0.75 0, 1.07 0, 1.31 0 M0.44 0 C0.61 0, 0.79 0, 1.31 0 M1.31 0 C1.6 0, 1.74 0.15, 1.74 0.44 M1.31 0 C1.6 0, 1.74 0.15, 1.74 0.44 M1.74 0.44 C1.74 3.67, 1.74 6.89, 1.74 10.61 M1.74 0.44 C1.74 3.6, 1.74 6.77, 1.74 10.61 M1.74 10.61 C1.74 10.9, 1.6 11.04, 1.31 11.04 M1.74 10.61 C1.74 10.9, 1.6 11.04, 1.31 11.04 M1.31 11.04 C1.04 11.04, 0.77 11.04, 0.44 11.04 M1.31 11.04 C1.13 11.04, 0.95 11.04, 0.44 11.04 M0.44 11.04 C0.15 11.04, 0 10.9, 0 10.61 M0.44 11.04 C0.15 11.04, 0 10.9, 0 10.61 M0 10.61 C0 6.97, 0 3.33, 0 0.44 M0 10.61 C0 7.1, 0 3.59, 0 0.44 M0 0.44 C0 0.15, 0.15 0, 0.44 0 M0 0.44 C0 0.15, 0.15 0, 0.44 0" stroke="#0eb1e4" stroke-width="1" fill="none"></path></g><g stroke-linecap="round" transform="translate(906.6117546568253 102.89695937883744) rotate(0 3.69215374157568 3.993086574452491)"><path d="M6.07 0.93 C6.67 1.48, 7.19 2.46, 7.33 3.3 C7.47 4.14, 7.29 5.25, 6.89 5.99 C6.49 6.73, 5.7 7.45, 4.95 7.75 C4.21 8.04, 3.17 8.04, 2.43 7.75 C1.69 7.45, 0.89 6.73, 0.49 5.99 C0.1 5.25, -0.08 4.14, 0.06 3.3 C0.19 2.46, 0.71 1.48, 1.32 0.93 C1.92 0.38, 2.9 0, 3.69 0 C4.48 0, 5.46 0.38, 6.07 0.93" stroke="none" stroke-width="0" fill="#0eb1e4"></path><path d="M6.07 0.93 C6.67 1.48, 7.19 2.46, 7.33 3.3 C7.47 4.14, 7.29 5.25, 6.89 5.99 C6.49 6.73, 5.7 7.45, 4.95 7.75 C4.21 8.04, 3.17 8.04, 2.43 7.75 C1.69 7.45, 0.89 6.73, 0.49 5.99 C0.1 5.25, -0.08 4.14, 0.06 3.3 C0.19 2.46, 0.71 1.48, 1.32 0.93 C1.92 0.38, 2.9 0, 3.69 0 C4.48 0, 5.46 0.38, 6.07 0.93" stroke="#0eb1e4" stroke-width="1" fill="none"></path></g><g stroke-linecap="round" transform="translate(514.8629807918205 477.97721358064973) rotate(0 58.0354643375739 31.647432616616925)"><path d="M0 0 L116.07 0 L116.07 63.29 L0 63.29" stroke="none" stroke-width="0" fill="white"></path><path d="M0 0 C40.14 0, 80.28 0, 116.07 0 M0 0 C29.6 0, 59.2 0, 116.07 0 M116.07 0 C116.07 15.98, 116.07 31.97, 116.07 63.29 M116.07 0 C116.07 20.5, 116.07 41.01, 116.07 63.29 M116.07 63.29 C82.46 63.29, 48.85 63.29, 0 63.29 M116.07 63.29 C72.1 63.29, 28.13 63.29, 0 63.29 M0 63.29 C0 40.46, 0 17.63, 0 0 M0 63.29 C0 38.84, 0 14.38, 0 0" stroke="white" stroke-width="1" fill="none"></path></g><g transform="translate(519.1782907254637 484.2541104245215) rotate(0 54.62649794942001 35.86588249204351)"><text x="0" y="50.731764984086865" font-family="Virgil, Segoe UI Emoji" font-size="57.38352601087645px" fill="#0eb1e4" text-anchor="start" style="white-space: pre;" direction="ltr">{...}</text></g><g stroke-linecap="round" transform="translate(553.6222144235435 504.6319723274664) rotate(306.4434673675469 6.58759472499662 1.9945406072126843)"><path d="M10.82 0.47 C11.9 0.74, 12.83 1.23, 13.08 1.65 C13.32 2.07, 13 2.62, 12.29 2.99 C11.59 3.36, 10.17 3.72, 8.84 3.87 C7.51 4.01, 5.66 4.01, 4.33 3.87 C3.01 3.72, 1.59 3.36, 0.88 2.99 C0.18 2.62, -0.15 2.07, 0.1 1.65 C0.35 1.23, 1.27 0.74, 2.35 0.47 C3.43 0.19, 5.18 0, 6.59 0 C8 0, 9.74 0.19, 10.82 0.47" stroke="none" stroke-width="0" fill="#0eb1e4"></path><path d="M10.82 0.47 C11.9 0.74, 12.83 1.23, 13.08 1.65 C13.32 2.07, 13 2.62, 12.29 2.99 C11.59 3.36, 10.17 3.72, 8.84 3.87 C7.51 4.01, 5.66 4.01, 4.33 3.87 C3.01 3.72, 1.59 3.36, 0.88 2.99 C0.18 2.62, -0.15 2.07, 0.1 1.65 C0.35 1.23, 1.27 0.74, 2.35 0.47 C3.43 0.19, 5.18 0, 6.59 0 C8 0, 9.74 0.19, 10.82 0.47" stroke="#0eb1e4" stroke-width="1" fill="none"></path></g><g stroke-linecap="round" transform="translate(582.4629138560158 504.5512699529436) rotate(44.97704373639855 6.58759472499662 1.9945406072126843)"><path d="M10.82 0.47 C11.9 0.74, 12.83 1.23, 13.08 1.65 C13.32 2.07, 13 2.62, 12.29 2.99 C11.59 3.36, 10.17 3.72, 8.84 3.87 C7.51 4.01, 5.66 4.01, 4.33 3.87 C3.01 3.72, 1.59 3.36, 0.88 2.99 C0.18 2.62, -0.15 2.07, 0.1 1.65 C0.35 1.23, 1.27 0.74, 2.35 0.47 C3.43 0.19, 5.18 0, 6.59 0 C8 0, 9.74 0.19, 10.82 0.47" stroke="none" stroke-width="0" fill="#0eb1e4"></path><path d="M10.82 0.47 C11.9 0.74, 12.83 1.23, 13.08 1.65 C13.32 2.07, 13 2.62, 12.29 2.99 C11.59 3.36, 10.17 3.72, 8.84 3.87 C7.51 4.01, 5.66 4.01, 4.33 3.87 C3.01 3.72, 1.59 3.36, 0.88 2.99 C0.18 2.62, -0.15 2.07, 0.1 1.65 C0.35 1.23, 1.27 0.74, 2.35 0.47 C3.43 0.19, 5.18 0, 6.59 0 C8 0, 9.74 0.19, 10.82 0.47" stroke="#0eb1e4" stroke-width="1" fill="none"></path></g><g stroke-linecap="round" transform="translate(576.4542162878151 503.64365648925923) rotate(14.251129668680113 4.544416351557288 7.87672590488387)"><path d="M7.47 1.84 C8.21 2.93, 8.85 4.85, 9.02 6.51 C9.19 8.17, 8.97 10.35, 8.48 11.82 C7.99 13.28, 7.01 14.7, 6.1 15.28 C5.18 15.86, 3.91 15.86, 2.99 15.28 C2.08 14.7, 1.1 13.28, 0.61 11.82 C0.12 10.35, -0.1 8.17, 0.07 6.51 C0.24 4.85, 0.88 2.93, 1.62 1.84 C2.37 0.76, 3.57 0, 4.54 0 C5.52 0, 6.72 0.76, 7.47 1.84" stroke="none" stroke-width="0" fill="#0eb1e4"></path><path d="M7.47 1.84 C8.21 2.93, 8.85 4.85, 9.02 6.51 C9.19 8.17, 8.97 10.35, 8.48 11.82 C7.99 13.28, 7.01 14.7, 6.1 15.28 C5.18 15.86, 3.91 15.86, 2.99 15.28 C2.08 14.7, 1.1 13.28, 0.61 11.82 C0.12 10.35, -0.1 8.17, 0.07 6.51 C0.24 4.85, 0.88 2.93, 1.62 1.84 C2.37 0.76, 3.57 0, 4.54 0 C5.52 0, 6.72 0.76, 7.47 1.84" stroke="#0eb1e4" stroke-width="1" fill="none"></path></g><g stroke-linecap="round" transform="translate(563.1743503276648 506.52335835267695) rotate(334.0400495723031 3.8983758650119853 6.756959703393477)"><path d="M6.4 1.58 C7.04 2.51, 7.59 4.16, 7.74 5.58 C7.88 7.01, 7.69 8.88, 7.27 10.14 C6.86 11.39, 6.02 12.61, 5.23 13.11 C4.45 13.6, 3.35 13.6, 2.57 13.11 C1.78 12.61, 0.94 11.39, 0.52 10.14 C0.1 8.88, -0.09 7.01, 0.06 5.58 C0.2 4.16, 0.75 2.51, 1.39 1.58 C2.03 0.65, 3.06 0, 3.9 0 C4.73 0, 5.76 0.65, 6.4 1.58" stroke="none" stroke-width="0" fill="#0eb1e4"></path><path d="M6.4 1.58 C7.04 2.51, 7.59 4.16, 7.74 5.58 C7.88 7.01, 7.69 8.88, 7.27 10.14 C6.86 11.39, 6.02 12.61, 5.23 13.11 C4.45 13.6, 3.35 13.6, 2.57 13.11 C1.78 12.61, 0.94 11.39, 0.52 10.14 C0.1 8.88, -0.09 7.01, 0.06 5.58 C0.2 4.16, 0.75 2.51, 1.39 1.58 C2.03 0.65, 3.06 0, 3.9 0 C4.73 0, 5.76 0.65, 6.4 1.58" stroke="#0eb1e4" stroke-width="1" fill="none"></path></g><g stroke-linecap="round" transform="translate(560.615186972007 491.9424609308762) rotate(0 13.15633691203459 12.964851748331057)"><path d="M21.61 3.03 C23.77 4.82, 25.62 7.98, 26.11 10.71 C26.6 13.45, 25.96 17.04, 24.55 19.45 C23.14 21.85, 20.3 24.2, 17.66 25.15 C15.01 26.1, 11.31 26.1, 8.66 25.15 C6.01 24.2, 3.17 21.85, 1.76 19.45 C0.35 17.04, -0.29 13.45, 0.2 10.71 C0.69 7.98, 2.54 4.82, 4.7 3.03 C6.86 1.25, 10.34 0, 13.16 0 C15.98 0, 19.45 1.25, 21.61 3.03" stroke="none" stroke-width="0" fill="#0eb1e4"></path><path d="M21.61 3.03 C23.77 4.82, 25.62 7.98, 26.11 10.71 C26.6 13.45, 25.96 17.04, 24.55 19.45 C23.14 21.85, 20.3 24.2, 17.66 25.15 C15.01 26.1, 11.31 26.1, 8.66 25.15 C6.01 24.2, 3.17 21.85, 1.76 19.45 C0.35 17.04, -0.29 13.45, 0.2 10.71 C0.69 7.98, 2.54 4.82, 4.7 3.03 C6.86 1.25, 10.34 0, 13.16 0 C15.98 0, 19.45 1.25, 21.61 3.03" stroke="#0eb1e4" stroke-width="1" fill="none"></path></g><g stroke-linecap="round" transform="translate(564.2427241222995 486.11535378017425) rotate(310.82721671153615 0.8717207654085541 5.520600593931249)"><path d="M0.44 0 L1.74 0.44 L1.31 11.04 L0 10.61 L0.44 0" stroke="none" stroke-width="0" fill="#0eb1e4"></path><path d="M0.44 0 M0.44 0 C0.61 0, 0.79 0, 1.31 0 M0.44 0 C0.62 0, 0.8 0, 1.31 0 M1.31 0 C1.6 0, 1.74 0.15, 1.74 0.44 M1.31 0 C1.6 0, 1.74 0.15, 1.74 0.44 M1.74 0.44 C1.74 3.28, 1.74 6.12, 1.74 10.61 M1.74 0.44 C1.74 4.05, 1.74 7.66, 1.74 10.61 M1.74 10.61 C1.74 10.9, 1.6 11.04, 1.31 11.04 M1.74 10.61 C1.74 10.9, 1.6 11.04, 1.31 11.04 M1.31 11.04 C1.07 11.04, 0.82 11.04, 0.44 11.04 M1.31 11.04 C1.08 11.04, 0.85 11.04, 0.44 11.04 M0.44 11.04 C0.15 11.04, 0 10.9, 0 10.61 M0.44 11.04 C0.15 11.04, 0 10.9, 0 10.61 M0 10.61 C0 7.11, 0 3.61, 0 0.44 M0 10.61 C0 7.27, 0 3.93, 0 0.44 M0 0.44 C0 0.15, 0.15 0, 0.44 0 M0 0.44 C0 0.15, 0.15 0, 0.44 0" stroke="#0eb1e4" stroke-width="1" fill="none"></path></g><g stroke-linecap="round" transform="translate(555.1722404966695 483.4623738075484) rotate(0 3.69215374157568 3.993086574452491)"><path d="M6.07 0.93 C6.67 1.48, 7.19 2.46, 7.33 3.3 C7.47 4.14, 7.29 5.25, 6.89 5.99 C6.49 6.73, 5.7 7.45, 4.95 7.75 C4.21 8.04, 3.17 8.04, 2.43 7.75 C1.69 7.45, 0.89 6.73, 0.49 5.99 C0.1 5.25, -0.08 4.14, 0.06 3.3 C0.19 2.46, 0.71 1.48, 1.32 0.93 C1.92 0.38, 2.9 0, 3.69 0 C4.48 0, 5.46 0.38, 6.07 0.93" stroke="none" stroke-width="0" fill="#0eb1e4"></path><path d="M6.07 0.93 C6.67 1.48, 7.19 2.46, 7.33 3.3 C7.47 4.14, 7.29 5.25, 6.89 5.99 C6.49 6.73, 5.7 7.45, 4.95 7.75 C4.21 8.04, 3.17 8.04, 2.43 7.75 C1.69 7.45, 0.89 6.73, 0.49 5.99 C0.1 5.25, -0.08 4.14, 0.06 3.3 C0.19 2.46, 0.71 1.48, 1.32 0.93 C1.92 0.38, 2.9 0, 3.69 0 C4.48 0, 5.46 0.38, 6.07 0.93" stroke="#0eb1e4" stroke-width="1" fill="none"></path></g><g transform="translate(246.99534893654845 729.1342236289101) rotate(0 41 16)"><text x="0" y="26" font-family="Helvetica, Segoe UI Emoji" font-size="28px" fill="black" text-anchor="start" style="white-space: pre;" direction="ltr">Export</text></g><g transform="translate(66.0728025498297 435.2343875631741) rotate(0 40.5 16)"><text x="0" y="26" font-family="Helvetica, Segoe UI Emoji" font-size="28px" fill="black" text-anchor="start" style="white-space: pre;" direction="ltr">Import</text></g><g stroke-linecap="round"><g transform="translate(224.0471576116788 416.0886205037432) rotate(0 83.46029884338384 137.66380310058594)"><path d="M0 0 C-0.39 15.09, -7.28 61.07, -2.33 90.56 C2.62 120.05, 15.72 153.42, 29.7 176.94 C43.69 200.45, 58.02 215.25, 81.57 231.65 C105.12 248.05, 156.1 268.05, 171.01 275.33" stroke="black" stroke-width="4.5" fill="none" stroke-dasharray="1.5 10"></path></g><g transform="translate(224.0471576116788 416.0886205037432) rotate(0 83.46029884338384 137.66380310058594)"><path d="M0 0 L5.41 13.99 L-7.24 13.14 L0 0" stroke="none" stroke-width="0" fill="black" fill-rule="evenodd"></path><path d="M0 0 C1.42 3.67, 2.84 7.35, 5.41 13.99 M5.41 13.99 C0.92 13.69, -3.58 13.39, -7.24 13.14 M-7.24 13.14 C-4.69 8.53, -2.15 3.91, 0 0 M0 0 C0 0, 0 0, 0 0" stroke="black" stroke-width="4.5" fill="none"></path></g></g><g stroke-linecap="round"><g transform="translate(347.9707857830467 732.0713766163235) rotate(270.668469589951 15.860568964474623 -1.1660514317679826)"><path d="M-0.03 -0.22 C5.65 -0.17, 27.83 -0.27, 33.23 -0.24 M-1.51 -1.39 C4.14 -1.65, 27.05 -2.02, 32.53 -2.12" stroke="#0eb1e4" stroke-width="4" fill="none"></path></g><g transform="translate(347.9707857830467 732.0713766163235) rotate(270.668469589951 15.860568964474623 -1.1660514317679826)"><path d="M16.93 4.39 C21.35 1.87, 25.15 1.25, 32.33 -3.17 M16.91 3.04 C22.19 2.71, 26.59 0, 31.96 -1.67" stroke="#0eb1e4" stroke-width="4" fill="none"></path></g><g transform="translate(347.9707857830467 732.0713766163235) rotate(270.668469589951 15.860568964474623 -1.1660514317679826)"><path d="M16.73 -6.81 C21.15 -6.79, 24.99 -4.86, 32.33 -3.17 M16.71 -8.16 C22.01 -4.87, 26.48 -3.95, 31.96 -1.67" stroke="#0eb1e4" stroke-width="4" fill="none"></path></g></g><g stroke-linecap="round"><g transform="translate(357.75820019622324 738.291100307868) rotate(0 7.68219784793223 8.962536073615638)"><path d="M0.31 0.3 C-2.29 0.44, -3.97 -0.12, -8.48 0.17 M-0.34 -0.01 C-1.7 -0.31, -4.16 -0.32, -7.76 0.35 M-9.68 -0.9 C-9.13 9.08, -7.74 15.37, -8.07 19.39 M-7.48 -0.95 C-7.18 7.56, -8.38 14.95, -9.01 19.22 M-9.46 18.18 C4.21 21.17, 17 20.29, 25.04 17.76 M-9.09 19.23 C3.17 19.46, 14.53 18.93, 24.65 18.37 M22.98 19.33 C23.9 11.94, 24.11 7.82, 24.52 -1.65 M23.74 18.52 C24.61 14.81, 23.3 10.64, 23.74 -2.13 M23.61 -1.65 C20.88 -1.49, 18.73 -1.19, 15.79 -0.54 M23.44 -1.93 C21.88 -1.37, 20.23 -1.19, 16.03 -0.35" stroke="#0eb1e4" stroke-width="4" fill="none"></path></g></g><g stroke-linecap="round"><g transform="translate(161.30798240825038 440.4218631394092) rotate(270.668469589951 16.11810278866062 -0.3536534393783768)"><path d="M-0.26 -0.06 C5.3 -0.11, 26.86 -0.8, 32.49 -0.96 M1.81 -1.14 C7.28 -0.95, 26.27 0.22, 31.52 0.43" stroke="#0eb1e4" stroke-width="4" fill="none"></path></g><g transform="translate(161.30798240825038 440.4218631394092) rotate(270.668469589951 16.11810278866062 -0.3536534393783768)"><path d="M14.8 -6.08 C11 -3.29, 7.44 -3.76, -0.01 -1.36 M14.22 -6.42 C9.81 -4.37, 4.54 -1.98, 0.39 -0.15" stroke="#0eb1e4" stroke-width="4" fill="none"></path></g><g transform="translate(161.30798240825038 440.4218631394092) rotate(270.668469589951 16.11810278866062 -0.3536534393783768)"><path d="M15.09 5.04 C11.29 5.29, 7.66 2.28, -0.01 -1.36 M14.51 4.7 C10.07 2.92, 4.7 1.49, 0.39 -0.15" stroke="#0eb1e4" stroke-width="4" fill="none"></path></g></g><g stroke-linecap="round"><g transform="translate(169.19947560337346 446.6794071592558) rotate(0 9.872143247896588 7.6846436982982596)"><path d="M-0.02 -0.14 C-0.92 -0.33, -3.03 -0.22, -6.36 -0.37 M-0.14 0.06 C-1.51 -0.16, -2.8 -0.12, -5.92 -0.84 M-4.21 -1.49 C-7.8 7.6, -4.35 13.98, -5.85 19.08 M-5.32 -0.53 C-5.35 6.85, -4.92 12.62, -7.13 18.99 M-5.31 19.14 C6.23 19.84, 13.53 19.58, 24.12 17.68 M-6.97 18.74 C0.65 18.27, 6.9 19.04, 25.67 16.86 M26.08 18.07 C26.2 10.45, 24.17 7.73, 26.88 -4.12 M25.21 17.27 C26.82 12.02, 25.07 8.02, 26.11 -2.88 M25.48 -1.92 C22.67 -2.45, 21.07 -1.33, 17.72 -1.21 M25.75 -2.21 C22.86 -1.59, 20.22 -1.87, 18.77 -1.24" stroke="#0eb1e4" stroke-width="4" fill="none"></path></g></g><g stroke-linecap="round" transform="translate(221.73575115822837 548.3600133260097) rotate(0 18.302261352539062 18.302261352539062)"><path d="M24.78 0.35 C28.48 1.41, 32.97 5.84, 34.77 9.36 C36.56 12.89, 36.34 17.62, 35.58 21.48 C34.81 25.34, 33.17 29.96, 30.18 32.53 C27.18 35.1, 21.48 36.98, 17.6 36.89 C13.72 36.8, 9.69 34.74, 6.92 31.99 C4.16 29.24, 1.62 24.23, 1.02 20.39 C0.42 16.55, 1.36 12.08, 3.34 8.96 C5.32 5.85, 9.12 2.86, 12.9 1.69 C16.68 0.52, 23.63 1.6, 26.03 1.94 C28.44 2.28, 27.28 3.39, 27.31 3.75 M10.66 2.19 C14.08 -0.14, 19.01 -1.79, 22.94 -0.74 C26.87 0.31, 32.13 5.35, 34.22 8.49 C36.31 11.64, 35.75 14.22, 35.49 18.11 C35.23 22, 34.89 28.6, 32.67 31.83 C30.46 35.06, 26.27 37.11, 22.18 37.48 C18.09 37.85, 11.55 36.46, 8.13 34.03 C4.7 31.61, 2.92 26.77, 1.62 22.94 C0.33 19.1, -0.98 14.61, 0.34 11.01 C1.67 7.41, 8.08 2.83, 9.58 1.33 C11.08 -0.18, 8.95 1.6, 9.35 1.99" stroke="none" stroke-width="0" fill="#0dce93"></path><path d="M11.2 1.97 C14.54 0.1, 20.08 -1.28, 23.69 -0.28 C27.3 0.71, 30.58 4.62, 32.86 7.93 C35.13 11.25, 37.55 15.79, 37.35 19.63 C37.15 23.48, 34.53 28.24, 31.65 31 C28.78 33.77, 24.04 35.88, 20.11 36.23 C16.17 36.58, 11.29 35.42, 8.06 33.11 C4.82 30.8, 1.57 26.21, 0.69 22.34 C-0.19 18.48, 0.98 13.55, 2.75 9.94 C4.52 6.33, 9.58 2.16, 11.31 0.7 C13.03 -0.76, 12.88 0.93, 13.11 1.18 M16.59 -0.15 C20.05 -0.5, 25.25 2.39, 28.77 4.67 C32.29 6.95, 36.96 9.98, 37.69 13.52 C38.41 17.06, 35.08 22.32, 33.12 25.89 C31.17 29.47, 29.22 33.4, 25.96 34.96 C22.7 36.52, 17.57 36.41, 13.57 35.28 C9.56 34.15, 4.41 31.58, 1.95 28.16 C-0.51 24.75, -1.79 18.81, -1.2 14.78 C-0.61 10.75, 2.24 6.51, 5.51 3.98 C8.78 1.45, 16.26 0.09, 18.39 -0.37 C20.52 -0.84, 18.22 1.02, 18.29 1.18" stroke="#0dce93" stroke-width="4" fill="none"></path></g><g stroke-linecap="round"><g transform="translate(244.86398903744134 554.6050669662964) rotate(0 -0.8951880030057282 12.098435482255354)" fill-rule="evenodd"><path d="M1.53 1.19 L5.08 4.64 L-6.98 25.3 L1.88 -1.47" stroke="none" stroke-width="0" fill="white" fill-rule="evenodd"></path><path d="M-0.52 0.1 C1.25 1.32, 3.06 2.37, 4.38 3.26 M0.18 -0.13 C1.63 0.98, 3.09 2.13, 5.02 3.48 M3.96 4.09 C0.75 11.75, -4.65 18.96, -4.47 24.32 M5.5 4.6 C1.93 7.15, -0.45 13.07, -5.66 23.99 M-7.29 22.09 C-4.59 16.07, -1.41 10.15, 0.79 1.07 M-5.45 24.08 C-3.44 14.89, -1.11 5.12, 0.53 0.07 M0 0 C0 0, 0 0, 0 0 M0 0 C0 0, 0 0, 0 0" stroke="white" stroke-width="4" fill="none"></path></g></g><g stroke-linecap="round"><g transform="translate(234.236627117725 570.052261184841) rotate(276.22300198439353 -0.1992861534001804 3.884868425361219)" fill-rule="evenodd"><path d="M1.19 0.1 L4.44 -0.27 L-1.79 10.07 L-1.47 -1.2" stroke="none" stroke-width="0" fill="white" fill-rule="evenodd"></path><path d="M0.06 -0.09 C1 0.48, 1.86 0.31, 3.2 1.24 M-0.08 0.08 C1.24 0.55, 2.61 0.98, 3.33 1.44 M3.65 1.24 C1.74 2.35, -0.39 5.31, -3.25 7.47 M3.9 0.94 C0.87 2.97, -0.49 5.21, -3.42 8.05 M-4.3 7.86 C-3.25 6.64, -2.14 4.56, 0.48 0.66 M-3.41 8.09 C-2.78 6.45, -2.44 4.88, 0.03 -0.32 M0 0 C0 0, 0 0, 0 0 M0 0 C0 0, 0 0, 0 0" stroke="white" stroke-width="4" fill="none"></path></g></g><g stroke-linecap="round"><g transform="translate(383.15818056089756 422.22056833902843) rotate(0 31.94623657226566 72.88263956705714)"><path d="M0 0 C5.84 6.47, 24.8 23.29, 35.05 38.81 C45.3 54.33, 56.9 75.3, 61.52 93.13 C66.14 110.95, 62.55 136.99, 62.76 145.77" stroke="black" stroke-width="4.5" fill="none" stroke-dasharray="1.5 10"></path></g><g transform="translate(383.15818056089756 422.22056833902843) rotate(0 31.94623657226566 72.88263956705714)"><path d="M62.76 145.77 L57.02 131.91 L69.68 132.46 L62.76 145.77" stroke="none" stroke-width="0" fill="black" fill-rule="evenodd"></path><path d="M62.76 145.77 C61.01 141.55, 59.26 137.33, 57.02 131.91 M57.02 131.91 C59.57 132.02, 62.13 132.13, 69.68 132.46 M69.68 132.46 C67.57 136.51, 65.46 140.57, 62.76 145.77 M62.76 145.77 C62.76 145.77, 62.76 145.77, 62.76 145.77" stroke="black" stroke-width="4.5" fill="none"></path></g></g><g stroke-linecap="round" transform="translate(407.33776124937435 461.00255584716615) rotate(0 18.229680379231695 18.229680379231695)"><path d="M18.83 0.31 C22.69 0.22, 28.36 1.85, 31.45 4.57 C34.54 7.29, 36.97 12.62, 37.37 16.63 C37.77 20.63, 36.13 25.52, 33.86 28.62 C31.59 31.71, 27.55 34.07, 23.75 35.17 C19.95 36.28, 14.66 36.81, 11.04 35.26 C7.42 33.71, 3.72 29.58, 2.05 25.88 C0.38 22.18, 0.11 16.69, 1.02 13.06 C1.94 9.42, 3.84 6.19, 7.54 4.05 C11.25 1.92, 20.32 0.69, 23.27 0.24 C26.21 -0.21, 25.4 1.09, 25.22 1.34 M23.55 0.17 C27.03 1.03, 30.37 5.47, 32.7 8.57 C35.02 11.67, 37.54 14.79, 37.5 18.74 C37.45 22.69, 35.54 29.53, 32.44 32.27 C29.34 35, 23.11 34.9, 18.9 35.16 C14.68 35.42, 10.19 35.98, 7.15 33.84 C4.12 31.69, 1.42 25.96, 0.68 22.29 C-0.06 18.62, 1.08 15.4, 2.71 11.84 C4.35 8.28, 7.32 2.91, 10.48 0.91 C13.63 -1.09, 19.75 -0.03, 21.65 -0.18 C23.54 -0.33, 21.78 -0.57, 21.83 -0.01" stroke="none" stroke-width="0" fill="#a23f3a"></path><path d="M11.91 0.87 C15.51 -0.69, 20.7 -0.55, 24.43 0.6 C28.16 1.76, 32.22 4.48, 34.27 7.79 C36.31 11.1, 37.36 16.59, 36.72 20.46 C36.07 24.34, 33.48 28.43, 30.37 31.04 C27.26 33.66, 21.97 35.79, 18.06 36.15 C14.15 36.51, 9.89 35.46, 6.91 33.2 C3.93 30.94, 1 26.62, 0.17 22.59 C-0.65 18.55, -0.13 12.43, 1.99 9.01 C4.11 5.6, 11.03 3.34, 12.91 2.09 C14.78 0.84, 13.38 1.49, 13.24 1.5 M13.14 0.52 C16.96 -0.53, 24.6 -1, 28.1 1 C31.61 2.99, 33.13 8.49, 34.18 12.47 C35.23 16.45, 35.29 21.59, 34.4 24.89 C33.51 28.2, 32.08 30.44, 28.82 32.32 C25.56 34.19, 18.77 36.31, 14.86 36.14 C10.95 35.97, 7.99 34.09, 5.38 31.29 C2.77 28.48, -0.65 23.5, -0.8 19.29 C-0.95 15.09, 2.04 9.3, 4.49 6.04 C6.94 2.78, 12 0.75, 13.92 -0.26 C15.83 -1.27, 15.86 -0.63, 15.97 -0.01" stroke="#a23f3a" stroke-width="4" fill="none"></path></g><g stroke-linecap="round"><g transform="translate(426.863626933786 465.9444140056967) rotate(24.531855030944794 0.20174857020526815 11.391449289167895)" fill-rule="evenodd"><path d="M0.16 0.55 L4.29 2.83 L-4.57 24.77 L-1.69 1.94" stroke="none" stroke-width="0" fill="white" fill-rule="evenodd"></path><path d="M-0.48 -0.54 C1.17 1.59, 2.86 2.78, 4.81 4 M-0.05 -0.2 C0.89 0.76, 2.28 1.86, 4.88 3.73 M6.91 4.59 C2.31 8.42, -2.72 14.36, -5.54 22.14 M4.21 2.97 C3.47 7.15, 1.21 12.77, -6.33 22.7 M-6.5 23.8 C-3.1 15.17, -3.04 8.85, 1.97 -1.02 M-5.55 23.43 C-4.5 16.86, -3.35 10.31, 0.47 -0.64 M0 0 C0 0, 0 0, 0 0 M0 0 C0 0, 0 0, 0 0" stroke="white" stroke-width="2" fill="none"></path></g></g><g stroke-linecap="round"><g transform="translate(424.6139626122879 468.3834816622202) rotate(123.59704107633048 -0.30255710169524264 11.851735531320173)" fill-rule="evenodd"><path d="M0.55 -0.67 L4.19 4.45 L-3.92 21.58 L1.94 1.35" stroke="none" stroke-width="0" fill="white" fill-rule="evenodd"></path><path d="M-0.54 -0.43 C1.98 0.9, 3.64 2.24, 5.36 3.2 M-0.2 -0.29 C1.6 1.17, 3.54 2.39, 5.09 3.58 M5.95 4.14 C1.83 6.59, -0.28 12.27, -6.55 21.58 M4.33 4.33 C1.16 10.29, -0.65 14.73, -5.99 23.17 M-4.89 24.13 C-5 14.61, -2.7 9.21, -1.02 -0.33 M-5.27 22.85 C-3.24 13.5, -1.1 5.79, -0.64 1 M0 0 C0 0, 0 0, 0 0 M0 0 C0 0, 0 0, 0 0" stroke="white" stroke-width="2" fill="none"></path></g></g><g stroke-linecap="round"><g transform="translate(499.1726865830328 270.3356501261378) rotate(0 124.53460693359375 -31.628341674804688)"><path d="M0 0 C12.88 -9.49, 46.55 -47.54, 77.27 -56.92 C107.99 -66.31, 155.68 -64.64, 184.32 -56.3 C212.95 -47.97, 238.28 -15.15, 249.07 -6.92" stroke="black" stroke-width="4.5" fill="none" stroke-dasharray="1.5 10"></path></g><g transform="translate(499.1726865830328 270.3356501261378) rotate(0 124.53460693359375 -31.628341674804688)"><path d="M0 0 L6.22 -13.65 L14.45 -4.01 L0 0" stroke="none" stroke-width="0" fill="black" fill-rule="evenodd"></path><path d="M0 0 C1.35 -2.95, 2.69 -5.91, 6.22 -13.65 M6.22 -13.65 C9.12 -10.26, 12.02 -6.86, 14.45 -4.01 M14.45 -4.01 C10.59 -2.94, 6.72 -1.87, 0 0 M0 0 C0 0, 0 0, 0 0" stroke="black" stroke-width="4.5" fill="none"></path></g><g transform="translate(499.1726865830328 270.3356501261378) rotate(0 124.53460693359375 -31.628341674804688)"><path d="M249.07 -6.92 L234.86 -11.72 L243.61 -20.89 L249.07 -6.92" stroke="none" stroke-width="0" fill="black" fill-rule="evenodd"></path><path d="M249.07 -6.92 C245.99 -7.96, 242.92 -9, 234.86 -11.72 M234.86 -11.72 C237.94 -14.95, 241.02 -18.18, 243.61 -20.89 M243.61 -20.89 C245.07 -17.16, 246.53 -13.42, 249.07 -6.92 M249.07 -6.92 C249.07 -6.92, 249.07 -6.92, 249.07 -6.92" stroke="black" stroke-width="4.5" fill="none"></path></g></g><g stroke-linecap="round"><g transform="translate(720.2302223903248 565.7499771118155) rotate(0 90.53670247395826 -65.0236781438191)"><path d="M0 0 C13.08 -0.57, 51.69 3.1, 78.47 -3.44 C105.25 -9.99, 143.58 -18.1, 160.68 -39.29 C177.78 -60.47, 177.67 -115.35, 181.07 -130.57" stroke="black" stroke-width="4.5" fill="none" stroke-dasharray="1.5 10"></path></g><g transform="translate(720.2302223903248 565.7499771118155) rotate(0 90.53670247395826 -65.0236781438191)"><path d="M0 0 L13.6 -6.32 L13.59 6.36 L0 0" stroke="none" stroke-width="0" fill="black" fill-rule="evenodd"></path><path d="M0 0 C3.33 -1.55, 6.67 -3.1, 13.6 -6.32 M13.6 -6.32 C13.6 -2.82, 13.59 0.68, 13.59 6.36 M13.59 6.36 C8.8 4.12, 4.02 1.88, 0 0 M0 0 C0 0, 0 0, 0 0" stroke="black" stroke-width="4.5" fill="none"></path></g><g transform="translate(720.2302223903248 565.7499771118155) rotate(0 90.53670247395826 -65.0236781438191)"><path d="M181.07 -130.57 L185.76 -116.32 L173.17 -117.82 L181.07 -130.57" stroke="none" stroke-width="0" fill="black" fill-rule="evenodd"></path><path d="M181.07 -130.57 C182.22 -127.07, 183.37 -123.58, 185.76 -116.32 M185.76 -116.32 C182.29 -116.73, 178.81 -117.14, 173.17 -117.82 M173.17 -117.82 C175.95 -122.3, 178.73 -126.79, 181.07 -130.57 M181.07 -130.57 C181.07 -130.57, 181.07 -130.57, 181.07 -130.57" stroke="black" stroke-width="4.5" fill="none"></path></g></g><g stroke-linecap="round" transform="translate(616.2568286321862 189.94863128661927) rotate(0 18.229680379231695 18.229680379231695)"><path d="M15.01 -0.43 C18.62 -1.38, 23.16 -0.54, 26.39 1.57 C29.63 3.68, 33.02 8.42, 34.44 12.24 C35.86 16.06, 35.93 20.79, 34.93 24.48 C33.92 28.18, 31.65 32.58, 28.41 34.39 C25.18 36.2, 19.35 35.98, 15.51 35.32 C11.66 34.66, 7.92 33.22, 5.35 30.41 C2.78 27.61, 0.2 22.37, 0.08 18.5 C-0.04 14.62, 2.04 10.34, 4.63 7.16 C7.22 3.98, 13.81 0.51, 15.64 -0.58 C17.47 -1.66, 15.5 0.29, 15.61 0.65 M13.72 -0.76 C17.47 -2.2, 22.74 -1.55, 26.17 0.52 C29.6 2.59, 32.71 7.93, 34.31 11.65 C35.92 15.36, 36.67 19.44, 35.81 22.81 C34.96 26.17, 32.22 29.53, 29.18 31.85 C26.14 34.18, 21.38 36.72, 17.57 36.76 C13.75 36.8, 9.11 34.81, 6.29 32.12 C3.47 29.42, 1.28 24.44, 0.66 20.61 C0.04 16.78, 0.55 12.22, 2.57 9.14 C4.59 6.06, 11.15 3.4, 12.76 2.13 C14.37 0.85, 11.89 1.56, 12.2 1.51" stroke="none" stroke-width="0" fill="#a23f3a"></path><path d="M11.56 0.14 C15.18 -1.48, 21.66 -0.82, 25.37 0.67 C29.08 2.15, 32.18 5.45, 33.82 9.07 C35.45 12.7, 35.82 18.44, 35.18 22.43 C34.55 26.42, 32.77 30.69, 30 33 C27.22 35.31, 22.61 36.51, 18.55 36.29 C14.49 36.07, 8.55 34.29, 5.65 31.7 C2.75 29.1, 1.5 24.62, 1.16 20.73 C0.81 16.83, 1.4 11.58, 3.61 8.33 C5.82 5.08, 12.14 2.66, 14.41 1.22 C16.68 -0.23, 16.94 -0.5, 17.21 -0.34 M25.62 2.49 C28.99 3.6, 32.41 5.62, 33.95 8.79 C35.5 11.97, 35.47 17.72, 34.89 21.54 C34.31 25.36, 33.21 29.13, 30.47 31.71 C27.73 34.3, 22.47 37.17, 18.45 37.07 C14.42 36.97, 9.61 34.09, 6.33 31.1 C3.06 28.11, -0.43 23.15, -1.2 19.12 C-1.97 15.1, -0.8 9.85, 1.69 6.93 C4.19 4.01, 9.91 2.49, 13.77 1.6 C17.63 0.72, 22.87 1.5, 24.86 1.59 C26.85 1.69, 25.64 1.8, 25.73 2.16" stroke="#a23f3a" stroke-width="4" fill="none"></path></g><g stroke-linecap="round"><g transform="translate(635.7826943165974 194.8904894451498) rotate(24.531855030944794 -0.14172338530272555 11.531082552629186)" fill-rule="evenodd"><path d="M0.22 0.66 L3.02 4.27 L-6.85 22.85 L1.84 -0.13" stroke="none" stroke-width="0" fill="white" fill-rule="evenodd"></path><path d="M-0.39 -0.38 C1.79 0.33, 2.13 2.12, 4.57 3.32 M0.15 0.14 C1.46 0.82, 2.29 1.72, 5.26 3.56 M6.76 3.56 C-0.6 12.83, -3.1 20.42, -4.89 22.73 M4.23 2.86 C1.27 10.71, -2.28 16.98, -5 23.6 M-7.04 21.37 C-2.52 18.18, -2.9 11.15, 0.77 0.53 M-6.23 22.85 C-4.14 14.26, -1.07 6.09, -0.33 -0.53 M0 0 C0 0, 0 0, 0 0 M0 0 C0 0, 0 0, 0 0" stroke="white" stroke-width="2" fill="none"></path></g></g><g stroke-linecap="round"><g transform="translate(633.5330299950997 197.32955710167334) rotate(123.59704107633048 -1.2001220013262355 11.925304303182884)" fill-rule="evenodd"><path d="M0.66 -1.94 L5.62 2.18 L-5.84 25.11 L-0.13 0.19" stroke="none" stroke-width="0" fill="white" fill-rule="evenodd"></path><path d="M-0.38 0.51 C0.46 0.3, 2.31 1.13, 4.67 3.28 M0.14 0.27 C1.01 0.6, 2.07 1.79, 4.92 3.87 M4.91 2.13 C3.72 9.04, 0.89 14.79, -5.96 23.71 M4.21 3.11 C1.85 10.13, -2.07 18.54, -5.1 22.93 M-7.32 24.52 C-3.01 17.84, -2.7 14.29, 0.53 1.04 M-5.85 22.74 C-4.26 15.98, -2.38 7.04, -0.53 -0.67 M0 0 C0 0, 0 0, 0 0 M0 0 C0 0, 0 0, 0 0" stroke="white" stroke-width="2" fill="none"></path></g></g><g stroke-linecap="round" transform="translate(838.3845141790607 524.1600062052403) rotate(0 18.229680379231695 18.229680379231695)"><path d="M10.48 1.39 C13.89 -0.2, 19.45 0.52, 23.34 1.58 C27.24 2.65, 31.73 4.66, 33.86 7.79 C35.98 10.93, 36.64 16.49, 36.12 20.38 C35.6 24.27, 33.66 28.32, 30.72 31.14 C27.79 33.95, 22.37 37.09, 18.51 37.27 C14.65 37.45, 10.67 34.74, 7.57 32.2 C4.46 29.66, 0.66 25.54, -0.14 22.01 C-0.94 18.48, 0.76 14.62, 2.78 11.02 C4.81 7.41, 10.15 2.14, 12.01 0.37 C13.87 -1.39, 13.99 0.07, 13.95 0.43 M23.18 1.45 C26.8 1.92, 28.87 4.88, 31.17 7.97 C33.46 11.07, 36.69 16.47, 36.96 20.02 C37.22 23.57, 35.68 26.43, 32.76 29.27 C29.84 32.11, 23.4 36.17, 19.45 37.07 C15.5 37.96, 12.23 37.05, 9.05 34.65 C5.86 32.25, 1.73 26.39, 0.34 22.69 C-1.04 18.99, -0.63 15.75, 0.74 12.45 C2.11 9.15, 4.91 4.86, 8.58 2.9 C12.25 0.94, 20.7 1.14, 22.75 0.68 C24.79 0.21, 20.99 -0.13, 20.85 0.09" stroke="none" stroke-width="0" fill="#a23f3a"></path><path d="M19.88 -0.86 C23.39 -0.74, 28.64 2.97, 31.23 5.98 C33.83 9, 35.28 13.44, 35.45 17.25 C35.63 21.06, 34.48 25.64, 32.27 28.86 C30.06 32.08, 25.77 35.74, 22.19 36.57 C18.62 37.4, 14.4 35.65, 10.83 33.86 C7.26 32.07, 2.58 29.44, 0.79 25.83 C-0.99 22.21, -1.17 15.89, 0.13 12.18 C1.44 8.47, 4.71 5.47, 8.63 3.58 C12.55 1.69, 20.77 1.03, 23.67 0.86 C26.57 0.69, 26.12 2.17, 26.02 2.55 M13.33 -0.34 C16.68 -1.31, 21.92 0.79, 25.53 2.54 C29.15 4.29, 33.42 6.96, 35 10.16 C36.58 13.35, 35.74 18.14, 35.02 21.69 C34.29 25.25, 33.39 29.03, 30.66 31.48 C27.93 33.93, 22.77 36.23, 18.64 36.39 C14.5 36.55, 8.75 35.12, 5.85 32.42 C2.95 29.72, 1.66 24.4, 1.26 20.18 C0.85 15.96, 1.68 10.34, 3.42 7.1 C5.17 3.85, 10.02 1.9, 11.75 0.72 C13.47 -0.46, 13.47 -0.11, 13.77 0" stroke="#a23f3a" stroke-width="4" fill="none"></path></g><g stroke-linecap="round"><g transform="translate(857.9103798634724 529.1018643637708) rotate(24.531855030944794 -0.28794791292250466 11.301370394653304)" fill-rule="evenodd"><path d="M1.88 1.59 L6.37 1.72 L-4.1 23.95 L1.58 1.29" stroke="none" stroke-width="0" fill="white" fill-rule="evenodd"></path><path d="M0.15 0.57 C2.23 0.93, 2.88 2.33, 5.09 3 M-0.05 0.18 C1.73 0.9, 2.75 2.31, 4.76 3.37 M5.24 3.89 C2.53 10.78, -0.52 15.62, -4.15 21.94 M5.7 3.97 C1.53 9.48, -2.47 17.61, -6.28 24.15 M-3.93 22.84 C-3.14 14.67, -3.68 9.3, 1.07 -1.55 M-6.07 22.44 C-4.19 16.23, -2.29 8.78, 0.04 0.86 M0 0 C0 0, 0 0, 0 0 M0 0 C0 0, 0 0, 0 0" stroke="white" stroke-width="2" fill="none"></path></g></g><g stroke-linecap="round"><g transform="translate(855.6607155419742 531.5409320202943) rotate(123.59704107633048 -0.7122238676421375 11.974509713011457)" fill-rule="evenodd"><path d="M1.59 1.41 L3.08 4.92 L-4.74 24.85 L1.29 -1.51" stroke="none" stroke-width="0" fill="white" fill-rule="evenodd"></path><path d="M0.57 0.48 C1.2 0.49, 2.88 2.34, 4.36 3.6 M0.18 0.26 C1.02 0.69, 2.58 1.59, 4.73 3.71 M5.24 4.53 C1.82 12.1, -3.69 19.15, -6.75 23.9 M5.33 3.77 C2.02 7.68, 1.3 11.6, -4.54 23.24 M-5.85 23.95 C-5.57 14.75, -2.41 10.29, -1.55 0.16 M-6.25 22.65 C-4.1 17.73, -3.18 12.97, 0.86 0.48 M0 0 C0 0, 0 0, 0 0 M0 0 C0 0, 0 0, 0 0" stroke="white" stroke-width="2" fill="none"></path></g></g><g transform="translate(173.0381978137898 39.27496702375447) rotate(0 130.5 16)"><text x="0" y="26" font-family="Helvetica, Segoe UI Emoji" font-size="28px" fill="black" text-anchor="start" style="white-space: pre;" direction="ltr">Team A's Workspace</text></g><g transform="translate(817.0659993274617 42.332675763988846) rotate(0 132 16)"><text x="0" y="26" font-family="Helvetica, Segoe UI Emoji" font-size="28px" fill="black" text-anchor="start" style="white-space: pre;" direction="ltr">Team C's Workspace</text></g><g transform="translate(462.67097979621167 895.7140234202388) rotate(0 131.5 16)"><text x="0" y="26" font-family="Helvetica, Segoe UI Emoji" font-size="28px" fill="black" text-anchor="start" style="white-space: pre;" direction="ltr">Team B's Workspace</text></g></svg>