<svg id="gloo-product-logo" viewBox="260 150 1775 560" fill="none" xmlns="http://www.w3.org/2000/svg" alt="Gloo Mesh" style="max-height:80px">
    <style>#gloo-product-logo path{fill:currentColor}</style>
    <path fill-rule="evenodd" clip-rule="evenodd" d="M300.935 447.396C328.108 474.569 364.95 489.855 403.379 489.899C441.82 489.84 478.667 474.531 505.832 447.332C532.997 420.133 548.26 383.267 548.271 344.826V315.504H403.309V374.148H484.489C478.443 390.83 467.41 405.248 452.886 415.442C438.363 425.637 421.054 431.114 403.309 431.13C380.428 431.104 358.492 422.003 342.312 405.824C326.133 389.644 317.031 367.707 317.006 344.826C316.992 333.456 319.243 322.197 323.628 311.707C328.013 301.216 334.443 291.704 342.544 283.725C350.575 275.677 360.13 269.309 370.649 264.994C381.169 260.679 392.442 258.503 403.812 258.592C425.041 258.708 445.48 266.664 461.199 280.932L500.546 237.452C474.139 213.531 439.833 200.197 404.203 200.004C385.096 199.857 366.152 203.519 348.476 210.776C330.8 218.033 314.747 228.739 301.256 242.27C287.659 255.686 276.87 271.675 269.518 289.304C262.166 306.934 258.397 325.851 258.432 344.952C258.476 383.381 273.761 420.223 300.935 447.396ZM714.484 446.974C741.552 474.043 778.253 489.27 816.533 489.314C854.829 489.292 891.55 474.075 918.637 447.004C945.724 419.933 960.962 383.22 961.006 344.925C960.962 306.63 945.724 269.917 918.637 242.846C891.55 215.775 854.829 200.558 816.533 200.536C778.253 200.58 741.552 215.807 714.484 242.875C687.415 269.944 672.189 306.644 672.144 344.925C672.189 383.206 687.415 419.906 714.484 446.974ZM755.926 284.313C772.001 268.235 793.798 259.191 816.533 259.165V259.179C839.28 259.187 861.094 268.22 877.186 284.297C893.278 300.373 902.333 322.178 902.362 344.925C902.336 367.672 893.283 389.48 877.19 405.557C861.097 421.634 839.281 430.667 816.533 430.67C793.8 430.644 772.005 421.602 755.931 405.527C739.856 389.453 730.814 367.658 730.788 344.925C730.81 322.189 739.851 300.391 755.926 284.313ZM1024.78 446.979C1051.85 474.048 1088.56 489.273 1126.84 489.314C1165.12 489.27 1201.81 474.045 1228.88 446.979C1255.95 419.914 1271.18 383.217 1271.23 344.939C1271.19 306.656 1255.96 269.952 1228.89 242.88C1201.82 215.809 1165.12 200.58 1126.84 200.536C1088.56 200.576 1051.85 215.801 1024.78 242.87C997.708 269.939 982.48 306.642 982.436 344.925C982.48 383.208 997.708 419.91 1024.78 446.979ZM1066.23 284.312C1082.3 268.235 1104.1 259.191 1126.84 259.165V259.179C1149.57 259.205 1171.37 268.247 1187.44 284.322C1203.52 300.397 1212.56 322.192 1212.58 344.925C1212.56 367.658 1203.52 389.453 1187.44 405.527C1171.37 421.602 1149.57 430.644 1126.84 430.67C1104.1 430.648 1082.3 421.607 1066.23 405.532C1050.15 389.457 1041.11 367.66 1041.08 344.925C1041.11 322.188 1050.15 300.39 1066.23 284.312ZM688.742 472.692C671.919 455.941 658.571 436.031 649.465 414.106C640.36 392.181 635.676 368.673 635.683 344.933V206.283H577.584V344.933C577.564 376.299 583.741 407.36 595.76 436.332C607.779 465.304 625.404 491.616 647.621 513.757L688.742 472.692Z"/>
    <path d="M2008.38 412.919V275.844H2027.57V412.919H2008.38ZM1915.36 412.919V275.844H1934.55V412.919H1915.36ZM1931.42 351.235V333.612H2014.45V351.235H1931.42Z"/>
    <path d="M1820.14 415.269C1812.82 415.269 1806.17 414.42 1800.16 412.723C1794.29 411.026 1789.13 408.741 1784.69 405.869C1780.38 402.867 1776.79 399.538 1773.92 395.882C1771.05 392.227 1769.03 388.376 1767.85 384.329L1786.45 378.259C1788.41 383.611 1792.13 388.245 1797.62 392.162C1803.1 396.078 1809.82 398.102 1817.79 398.232C1827.45 398.232 1835.02 396.339 1840.5 392.553C1846.11 388.637 1848.92 383.48 1848.92 377.084C1848.92 371.209 1846.51 366.444 1841.68 362.789C1836.85 359.003 1830.45 356.131 1822.49 354.173L1806.62 350.06C1800.36 348.363 1794.61 345.948 1789.39 342.815C1784.3 339.682 1780.25 335.7 1777.25 330.87C1774.25 326.04 1772.75 320.23 1772.75 313.442C1772.75 300.909 1776.79 291.118 1784.89 284.069C1793.11 277.019 1804.93 273.495 1820.33 273.495C1829.21 273.495 1836.91 274.931 1843.44 277.803C1849.97 280.544 1855.32 284.199 1859.5 288.769C1863.8 293.338 1866.87 298.364 1868.7 303.847L1850.1 310.113C1847.88 304.238 1844.09 299.539 1838.74 296.014C1833.39 292.359 1826.79 290.531 1818.96 290.531C1810.74 290.531 1804.21 292.489 1799.38 296.406C1794.68 300.322 1792.33 305.674 1792.33 312.463C1792.33 318.207 1794.16 322.646 1797.81 325.779C1801.6 328.781 1806.62 331.066 1812.89 332.632L1828.75 336.549C1841.55 339.682 1851.4 344.904 1858.32 352.214C1865.37 359.395 1868.89 367.293 1868.89 375.909C1868.89 383.35 1867 390.073 1863.22 396.078C1859.56 401.953 1854.08 406.653 1846.77 410.177C1839.59 413.572 1830.71 415.269 1820.14 415.269Z"/>
    <path d="M1640.6 412.919V275.844H1723.04V293.468H1659.79V334.199H1716.78V351.431H1659.79V395.295H1723.44V412.919H1640.6Z"/>
    <path d="M1454.84 412.919V275.844H1475.21L1520.64 343.011L1565.87 275.844H1586.24V412.919H1567.05V306.784L1520.44 375.517L1474.03 306.98V412.919H1454.84Z"/>
    <path fill-rule="evenodd" clip-rule="evenodd" d="M1354.32 488.104L1354.32 201.133L1356.82 201.133L1356.82 488.104L1354.32 488.104Z"/>
</svg>