
<svg width="289" height="64" viewBox="0 0 289 64" fill="none" xmlns="http://www.w3.org/2000/svg">
<path fill-rule="evenodd" clip-rule="evenodd" d="M58.4877 50.3583C63.9261 55.8896 71.2995 59.0011 78.9905 59.0101C86.681 59.0003 94.0537 55.8885 99.4914 50.3573C104.929 44.826 107.988 37.327 107.997 29.5051C107.988 21.6831 104.929 14.1841 99.4914 8.65284C94.0537 3.12161 86.681 0.00981564 78.9905 0C71.2995 0.00906076 63.9261 3.12054 58.4877 8.65184C53.0494 14.1832 49.9902 21.6826 49.9813 29.5051C49.9902 37.3275 53.0494 44.827 58.4877 50.3583ZM66.814 17.1205C70.0438 13.8354 74.4229 11.9876 78.9905 11.9823C83.5576 11.9884 87.936 13.8365 91.1651 17.1215C94.3943 20.4064 96.2107 24.8599 96.2159 29.5051C96.2115 34.1505 94.3953 38.6044 91.166 41.8895C87.9366 45.1746 83.5579 47.0225 78.9905 47.0278C74.4229 47.0225 70.0438 45.1747 66.814 41.8897C63.5842 38.6047 61.7675 34.1508 61.7623 29.5051C61.7675 24.8594 63.5842 20.4055 66.814 17.1205ZM0.507812 37.9263C1.03889 44.2921 3.34647 49.3095 7.43054 52.9783C11.5165 56.6491 16.9338 58.4845 23.6826 58.4845C27.6077 58.4826 31.1355 57.7542 34.2658 56.2992C37.3962 54.8385 39.8365 52.7739 41.5869 50.1054C43.3372 47.437 44.2123 44.3482 44.2123 40.8391C44.2142 36.6871 43.2596 33.3682 41.3484 30.8824C39.5969 28.5296 37.2782 26.6764 34.6165 25.5017C31.5021 24.2173 28.2961 23.1758 25.0262 22.3863C22.7467 21.8443 20.9964 21.3583 19.7753 20.9285C18.6529 20.554 17.612 19.9632 16.7094 19.1882C16.3116 18.8461 15.9945 18.4175 15.7813 17.9341C15.5682 17.4507 15.4646 16.9248 15.478 16.3952C15.4603 15.687 15.6186 14.9857 15.9383 14.3563C16.258 13.7269 16.7287 13.1898 17.3069 12.7947C18.5261 11.9046 20.1979 11.4596 22.3222 11.4596C24.7102 11.4596 26.7522 12.0796 28.4483 13.3197C29.2692 13.9025 29.9668 14.6469 30.4997 15.5089C31.0326 16.3709 31.39 17.333 31.5506 18.338H43.8056C43.1642 12.8318 40.9202 8.48776 37.0736 5.30579C33.2271 2.12381 28.3071 0.532816 22.3138 0.532816C18.9425 0.493442 15.6028 1.19714 12.5244 2.5955C9.69885 3.85022 7.26357 5.86547 5.48105 8.42405C3.75982 10.924 2.8551 13.9112 2.89486 16.9629C2.89486 20.9018 3.78404 24.0039 5.56241 26.2692C7.23417 28.4542 9.40555 30.1906 11.8876 31.3274C14.9053 32.6357 18.0178 33.7049 21.1974 34.5256C23.5854 35.1817 25.4554 35.7523 26.8074 36.2373C28.0692 36.6661 29.2238 37.37 30.1902 38.3C30.6336 38.7332 30.983 39.2561 31.2158 39.8349C31.4487 40.4137 31.5598 41.0356 31.5422 41.6608C31.5718 42.8088 31.2222 43.9338 30.5492 44.856C29.8294 45.7872 28.8631 46.49 27.7639 46.8816C26.4496 47.3597 25.0614 47.5926 23.6658 47.5692C20.5336 47.5749 18.0268 46.738 16.1456 45.0586C14.2644 43.3792 13.1368 41.0017 12.7628 37.9263H0.507812ZM162.07 59.0101C154.379 59.0011 147.006 55.8896 141.568 50.3583C136.129 44.827 133.07 37.3275 133.061 29.5051C133.07 21.6826 136.129 14.1832 141.568 8.65184C147.006 3.12054 154.379 0.00906076 162.07 0C169.761 0.00981564 177.134 3.12161 182.571 8.65284C188.009 14.1841 191.068 21.6831 191.077 29.5051C191.068 37.327 188.009 44.826 182.571 50.3573C177.134 55.8885 169.761 59.0003 162.07 59.0101ZM162.07 11.9823C157.503 11.9876 153.124 13.8354 149.894 17.1205C146.664 20.4055 144.847 24.8594 144.842 29.5051C144.847 34.1508 146.664 38.6047 149.894 41.8897C153.124 45.1747 157.503 47.0225 162.07 47.0278C166.638 47.0225 171.016 45.1746 174.246 41.8895C177.475 38.6044 179.291 34.1505 179.296 29.5051C179.291 24.8599 177.474 20.4064 174.245 17.1215C171.016 13.8365 166.637 11.9884 162.07 11.9823ZM128.455 43.6393C130.284 48.1193 132.966 52.1872 136.347 55.6092L128.111 63.9997C123.643 59.4782 120.097 54.1031 117.679 48.1832C115.26 42.2634 114.015 35.9156 114.016 29.5049V1.17522H125.688V29.5049C125.685 34.3558 126.626 39.1594 128.455 43.6393Z" fill="white"/>
<path fill-rule="evenodd" clip-rule="evenodd" d="M237.741 50.3583C243.179 55.8896 250.553 59.0011 258.244 59.0101C265.934 59.0003 273.307 55.8885 278.745 50.3573C284.182 44.826 287.241 37.327 287.25 29.5051C287.241 21.6831 284.182 14.1841 278.745 8.65284C273.307 3.12161 265.934 0.00981564 258.244 0C250.553 0.00906076 243.179 3.12054 237.741 8.65184C232.303 14.1832 229.243 21.6826 229.235 29.5051C229.243 37.3275 232.303 44.827 237.741 50.3583ZM246.067 17.1205C249.297 13.8354 253.676 11.9876 258.244 11.9823C262.811 11.9884 267.189 13.8365 270.418 17.1215C273.648 20.4064 275.464 24.8599 275.469 29.5051C275.465 34.1505 273.649 38.6044 270.419 41.8895C267.19 45.1746 262.811 47.0225 258.244 47.0278C253.676 47.0225 249.297 45.1747 246.067 41.8897C242.837 38.6047 241.021 34.1508 241.015 29.5051C241.021 24.8594 242.837 20.4055 246.067 17.1205ZM210.766 1.17522H222.375V57.8317H210.766V1.17522Z" fill="white"/>
<path d="M197.671 59.0087C201.826 59.0087 205.194 55.583 205.194 51.3571C205.194 47.1313 201.826 43.7056 197.671 43.7056C193.517 43.7056 190.148 47.1313 190.148 51.3571C190.148 55.583 193.517 59.0087 197.671 59.0087Z" fill="white"/>
</svg>